# This file uses centimeters as units for non-parametric coordinates.

mtllib HouseRight.mtl
g default
v 1.000000 -2.000000 2.500000
v 2.500000 -2.000000 2.500000
v 1.000000 1.000000 2.500000
v 2.500000 1.000000 2.500000
v 1.000000 1.000000 1.000000
v 2.500000 1.000000 1.000000
v 1.000000 -2.000000 1.000000
v 2.500000 -2.000000 1.000000
vt 0.375000 0.000000
vt 0.625000 0.000000
vt 0.375000 0.250000
vt 0.625000 0.250000
vt 0.375000 0.500000
vt 0.625000 0.500000
vt 0.375000 0.750000
vt 0.625000 0.750000
vt 0.375000 1.000000
vt 0.625000 1.000000
vt 0.875000 0.000000
vt 0.875000 0.250000
vt 0.125000 0.000000
vt 0.125000 0.250000
vn 0.000000 0.000000 1.000000
vn 0.000000 0.000000 1.000000
vn 0.000000 0.000000 1.000000
vn 0.000000 0.000000 1.000000
vn 0.000000 1.000000 0.000000
vn 0.000000 1.000000 0.000000
vn 0.000000 1.000000 0.000000
vn 0.000000 1.000000 0.000000
vn 0.000000 0.000000 -1.000000
vn 0.000000 0.000000 -1.000000
vn 0.000000 0.000000 -1.000000
vn 0.000000 0.000000 -1.000000
vn 0.000000 -1.000000 0.000000
vn 0.000000 -1.000000 0.000000
vn 0.000000 -1.000000 0.000000
vn 0.000000 -1.000000 0.000000
vn 1.000000 0.000000 0.000000
vn 1.000000 0.000000 0.000000
vn 1.000000 0.000000 0.000000
vn 1.000000 0.000000 0.000000
vn -1.000000 0.000000 0.000000
vn -1.000000 0.000000 0.000000
vn -1.000000 0.000000 0.000000
vn -1.000000 0.000000 0.000000
s off
g pCube4
usemtl initialShadingGroup
f 1/1/1 2/2/2 4/4/3 3/3/4
f 3/3/5 4/4/6 6/6/7 5/5/8
f 5/5/9 6/6/10 8/8/11 7/7/12
f 7/7/13 8/8/14 2/10/15 1/9/16
f 2/2/17 8/11/18 6/12/19 4/4/20
f 7/13/21 1/1/22 3/3/23 5/14/24
g default
v -3.125000 -5.000000 0.500000
v -2.875000 -5.000000 0.500000
v -3.125000 -3.000000 0.500000
v -2.875000 -3.000000 0.500000
v -3.125000 -3.000000 -0.500000
v -2.875000 -3.000000 -0.500000
v -3.125000 -5.000000 -0.500000
v -2.875000 -5.000000 -0.500000
vt 0.375000 0.000000
vt 0.625000 0.000000
vt 0.375000 0.250000
vt 0.625000 0.250000
vt 0.375000 0.500000
vt 0.625000 0.500000
vt 0.375000 0.750000
vt 0.625000 0.750000
vt 0.375000 1.000000
vt 0.625000 1.000000
vt 0.875000 0.000000
vt 0.875000 0.250000
vt 0.125000 0.000000
vt 0.125000 0.250000
vn 0.000000 0.000000 1.000000
vn 0.000000 0.000000 1.000000
vn 0.000000 0.000000 1.000000
vn 0.000000 0.000000 1.000000
vn 0.000000 1.000000 0.000000
vn 0.000000 1.000000 0.000000
vn 0.000000 1.000000 0.000000
vn 0.000000 1.000000 0.000000
vn 0.000000 0.000000 -1.000000
vn 0.000000 0.000000 -1.000000
vn 0.000000 0.000000 -1.000000
vn 0.000000 0.000000 -1.000000
vn 0.000000 -1.000000 0.000000
vn 0.000000 -1.000000 0.000000
vn 0.000000 -1.000000 0.000000
vn 0.000000 -1.000000 0.000000
vn 1.000000 0.000000 0.000000
vn 1.000000 0.000000 0.000000
vn 1.000000 0.000000 0.000000
vn 1.000000 0.000000 0.000000
vn -1.000000 0.000000 0.000000
vn -1.000000 0.000000 0.000000
vn -1.000000 0.000000 0.000000
vn -1.000000 0.000000 0.000000
s off
g pCube3
usemtl initialShadingGroup
f 9/15/25 10/16/26 12/18/27 11/17/28
f 11/17/29 12/18/30 14/20/31 13/19/32
f 13/19/33 14/20/34 16/22/35 15/21/36
f 15/21/37 16/22/38 10/24/39 9/23/40
f 10/16/41 16/25/42 14/26/43 12/18/44
f 15/27/45 9/15/46 11/17/47 13/28/48
g default
v -3.000000 -5.000000 5.000000
v 3.000000 -5.000000 5.000000
v -3.000000 -1.500000 5.000000
v 3.000000 -1.500000 5.000000
v -3.000000 -1.500000 -4.000000
v 3.000000 -1.500000 -4.000000
v -3.000000 -5.000000 -4.000000
v 3.000000 -5.000000 -4.000000
v 0.000000 -5.000000 5.000000
v 0.000000 0.000000 5.000000
v 0.000000 0.000000 -4.000000
v 0.000000 -5.000000 -4.000000
v -3.000000 -2.000000 5.000000
v -3.000000 -2.000000 -4.000000
v 0.000000 -0.500000 -4.000000
v 3.000000 -2.000000 -4.000000
v 3.000000 -2.000000 5.000000
v 0.000000 -0.500000 5.000000
v -3.500000 -2.250000 5.000000
v -3.500000 -2.250000 -4.000000
v -3.500000 -1.750000 5.000000
v -3.500000 -1.750000 -4.000000
v 3.500000 -2.250000 -4.000000
v 3.500000 -2.250000 5.000000
v 3.500000 -1.750000 -4.000000
v 3.500000 -1.750000 5.000000
v -3.000000 -1.500000 -4.500000
v 0.000000 0.000000 -4.500000
v 0.000000 -0.500000 -4.500000
v -3.000000 -2.000000 -4.500000
v 3.000000 -2.000000 -4.500000
v 3.000000 -1.500000 -4.500000
v -3.500000 -2.250000 -4.500000
v -3.500000 -1.750000 -4.500000
v 3.500000 -1.750000 -4.500000
v 3.500000 -2.250000 -4.500000
vt 0.375000 0.000000
vt 0.625000 0.000000
vt 0.375000 0.250000
vt 0.625000 0.250000
vt 0.375000 0.500000
vt 0.625000 0.500000
vt 0.375000 0.750000
vt 0.625000 0.750000
vt 0.375000 1.000000
vt 0.625000 1.000000
vt 0.875000 0.000000
vt 0.875000 0.250000
vt 0.125000 0.000000
vt 0.125000 0.250000
vt 0.500000 0.000000
vt 0.500000 1.000000
vt 0.500000 0.250000
vt 0.500000 0.500000
vt 0.500000 0.750000
vt 0.375000 0.200000
vt 0.125000 0.200000
vt 0.375000 0.550000
vt 0.500000 0.550000
vt 0.625000 0.550000
vt 0.875000 0.200000
vt 0.625000 0.200000
vt 0.500000 0.200000
vt 0.125000 0.200000
vt 0.375000 0.200000
vt 0.375000 0.250000
vt 0.125000 0.250000
vt 0.625000 0.200000
vt 0.875000 0.200000
vt 0.875000 0.250000
vt 0.625000 0.250000
vt 0.375000 0.500000
vt 0.500000 0.500000
vt 0.500000 0.550000
vt 0.375000 0.550000
vt 0.625000 0.550000
vt 0.625000 0.500000
vt 0.500000 0.200000
vt 0.625000 0.200000
vt 0.625000 0.250000
vt 0.500000 0.250000
vt 0.375000 0.200000
vt 0.375000 0.250000
vt 0.375000 0.250000
vt 0.375000 0.200000
vt 0.125000 0.200000
vt 0.125000 0.200000
vt 0.125000 0.250000
vt 0.125000 0.250000
vt 0.875000 0.250000
vt 0.875000 0.250000
vt 0.875000 0.200000
vt 0.875000 0.200000
vn 0.000000 0.000000 1.000000
vn 0.000000 0.000000 1.000000
vn 0.000000 0.000000 1.000000
vn 0.000000 0.000000 1.000000
vn -0.447214 0.894427 0.000000
vn 0.000000 1.000000 0.000000
vn 0.000000 1.000000 0.000000
vn -0.447214 0.894427 0.000000
vn 0.000000 0.000000 -1.000000
vn 0.000000 0.000000 -1.000000
vn 0.000000 0.000000 -1.000000
vn 0.000000 0.000000 -1.000000
vn 0.000000 -1.000000 0.000000
vn 0.000000 -1.000000 0.000000
vn 0.000000 -1.000000 0.000000
vn 0.000000 -1.000000 0.000000
vn 1.000000 0.000000 0.000000
vn 1.000000 0.000000 0.000000
vn 1.000000 0.000000 0.000000
vn 1.000000 0.000000 0.000000
vn -1.000000 0.000000 0.000000
vn -1.000000 0.000000 0.000000
vn -1.000000 0.000000 0.000000
vn -1.000000 0.000000 0.000000
vn 0.000000 0.000000 1.000000
vn 0.000000 0.000000 1.000000
vn 0.447214 0.894427 0.000000
vn 0.447214 0.894427 0.000000
vn -0.000000 0.000000 -1.000000
vn -0.000000 0.000000 -1.000000
vn 0.000000 -1.000000 0.000000
vn 0.000000 -1.000000 0.000000
vn -1.000000 0.000000 0.000000
vn -1.000000 0.000000 0.000000
vn -1.000000 0.000000 0.000000
vn -1.000000 0.000000 0.000000
vn -0.000000 0.000000 -1.000000
vn -0.000000 0.000000 -1.000000
vn -0.000000 0.000000 -1.000000
vn -0.000000 0.000000 -1.000000
vn -0.000000 0.000000 -1.000000
vn -0.000000 0.000000 -1.000000
vn 1.000000 0.000000 0.000000
vn 1.000000 0.000000 0.000000
vn 1.000000 0.000000 0.000000
vn 1.000000 0.000000 0.000000
vn 0.447213 -0.894427 0.000000
vn 0.447213 -0.894427 0.000000
vn 0.447213 -0.894427 0.000000
vn 0.447213 -0.894427 0.000000
vn -0.447213 0.894427 0.000000
vn -0.447213 0.894427 0.000000
vn -0.000001 0.000000 -1.000000
vn -0.000001 0.000000 -1.000000
vn -0.447213 -0.894427 0.000000
vn -0.447213 -0.894427 0.000000
vn -0.447213 -0.894427 0.000000
vn -0.447213 -0.894427 0.000000
vn 0.000000 0.000000 -1.000000
vn 0.000000 0.000000 -1.000000
vn 0.447213 0.894427 0.000000
vn 0.447213 0.894427 0.000000
vn -0.447214 0.894427 0.000000
vn -0.447214 0.894427 0.000000
vn 0.447214 -0.894427 0.000000
vn 0.447214 -0.894427 0.000000
vn 0.447214 -0.894427 0.000000
vn -0.447214 -0.894427 0.000000
vn -0.447214 -0.894427 0.000000
vn -0.447214 -0.894427 0.000000
vn 0.447214 0.894427 0.000000
vn 0.447214 0.894427 0.000000
vn 0.447213 -0.894427 0.000000
vn -1.000000 0.000000 0.000000
vn -1.000000 0.000000 0.000000
vn -0.447213 0.894427 0.000000
vn 0.447213 0.894427 0.000000
vn 1.000000 0.000000 0.000000
vn 1.000000 0.000000 0.000000
vn -0.447213 -0.894427 0.000000
vn 0.000000 0.000000 1.000000
vn 0.000000 0.000000 1.000000
vn 0.000000 0.000000 1.000000
vn 0.000000 0.000000 1.000000
vn 0.000000 0.000000 1.000000
vn 0.000000 0.000000 1.000000
vn 0.000000 0.000000 1.000000
vn 0.000000 0.000000 1.000000
vn 0.000000 0.000000 1.000000
vn 0.000000 0.000000 1.000000
vn 0.000000 0.000000 1.000000
vn 0.000000 0.000000 1.000000
vn 0.000000 0.000000 1.000000
vn 0.000000 0.000000 1.000000
vn 0.000000 0.000000 1.000000
vn 0.000000 0.000000 1.000000
s 1
g pCube2
usemtl initialShadingGroup
f 17/29/49 25/43/50 34/55/51 29/48/52
s 2
f 19/31/53 26/45/54 27/46/55 21/33/56
s 3
f 30/50/57 31/51/58 28/47/59 23/35/60
s 4
f 23/35/61 28/47/62 25/44/63 17/37/64
s off
f 18/30/65 24/39/66 32/53/67 33/54/68
f 23/41/69 17/29/70 29/48/71 30/49/72
s 1
f 33/54/73 34/55/51 25/43/50 18/30/74
s 2
f 27/46/55 26/45/54 20/32/75 22/34/76
s 3
f 28/47/59 31/51/58 32/52/77 24/36/78
s 4
f 25/44/63 28/47/62 24/36/79 18/38/80
s 5
f 36/56/81 35/57/82 37/58/83 38/59/84
s 6
f 43/64/85 44/65/86 45/66/87 46/67/88
f 47/68/89 45/66/87 44/65/86 48/69/90
s 7
f 40/60/91 39/61/92 41/62/93 42/63/94
s 8
f 30/49/95 29/48/96 35/57/97 36/56/98
s 2
f 19/31/53 21/42/56 38/59/99 37/58/100
s 6
f 43/81/85 46/78/88 49/79/101 50/80/102
s 9
f 33/54/103 32/53/104 39/61/105 40/60/106
s 6
f 47/85/89 48/82/90 51/83/107 52/84/108
s 2
f 22/40/76 20/32/75 42/63/109 41/62/110
f 21/33/56 27/46/55 44/65/111 43/64/112
s 8
f 31/51/113 30/50/95 46/67/114 45/66/115
s 9
f 32/52/104 31/51/116 45/66/117 47/68/118
s 2
f 27/46/55 22/34/76 48/69/119 44/65/120
s 8
f 30/55/95 36/54/98 49/71/121 46/70/114
s 5
f 36/32/81 38/45/84 50/73/122 49/72/123
s 2
f 38/48/99 21/55/56 43/70/112 50/74/124
f 22/45/76 41/31/110 51/75/125 48/73/119
s 7
f 41/31/93 39/58/92 52/76/126 51/75/127
s 9
f 39/58/105 32/57/104 47/77/118 52/76/128
s off
f 35/57/129 29/48/130 19/31/131 37/58/132
f 26/45/133 19/31/134 29/48/135 34/55/136
f 20/32/137 26/45/138 34/55/139 33/54/140
f 33/54/141 40/60/142 42/63/143 20/32/144
