# This file uses centimeters as units for non-parametric coordinates.

mtllib HouseBackLeft.mtl
g default
v 0.750000 -2.000000 2.250000
v 2.250000 -2.000000 2.250000
v 0.750000 1.000000 2.250000
v 2.250000 1.000000 2.250000
v 0.750000 1.000000 0.750000
v 2.250000 1.000000 0.750000
v 0.750000 -2.000000 0.750000
v 2.250000 -2.000000 0.750000
vt 0.375000 0.000000
vt 0.625000 0.000000
vt 0.375000 0.250000
vt 0.625000 0.250000
vt 0.375000 0.500000
vt 0.625000 0.500000
vt 0.375000 0.750000
vt 0.625000 0.750000
vt 0.375000 1.000000
vt 0.625000 1.000000
vt 0.875000 0.000000
vt 0.875000 0.250000
vt 0.125000 0.000000
vt 0.125000 0.250000
vn 0.000000 0.000000 1.000000
vn 0.000000 0.000000 1.000000
vn 0.000000 0.000000 1.000000
vn 0.000000 0.000000 1.000000
vn 0.000000 1.000000 0.000000
vn 0.000000 1.000000 0.000000
vn 0.000000 1.000000 0.000000
vn 0.000000 1.000000 0.000000
vn 0.000000 0.000000 -1.000000
vn 0.000000 0.000000 -1.000000
vn 0.000000 0.000000 -1.000000
vn 0.000000 0.000000 -1.000000
vn 0.000000 -1.000000 0.000000
vn 0.000000 -1.000000 0.000000
vn 0.000000 -1.000000 0.000000
vn 0.000000 -1.000000 0.000000
vn 1.000000 0.000000 0.000000
vn 1.000000 0.000000 0.000000
vn 1.000000 0.000000 0.000000
vn 1.000000 0.000000 0.000000
vn -1.000000 0.000000 0.000000
vn -1.000000 0.000000 0.000000
vn -1.000000 0.000000 0.000000
vn -1.000000 0.000000 0.000000
s off
g pCube4
usemtl initialShadingGroup
f 1/1/1 2/2/2 4/4/3 3/3/4
f 3/3/5 4/4/6 6/6/7 5/5/8
f 5/5/9 6/6/10 8/8/11 7/7/12
f 7/7/13 8/8/14 2/10/15 1/9/16
f 2/2/17 8/11/18 6/12/19 4/4/20
f 7/13/21 1/1/22 3/3/23 5/14/24
g default
v -3.125000 -5.000000 0.500000
v -2.875000 -5.000000 0.500000
v -3.125000 -3.000000 0.500000
v -2.875000 -3.000000 0.500000
v -3.125000 -3.000000 -0.500000
v -2.875000 -3.000000 -0.500000
v -3.125000 -5.000000 -0.500000
v -2.875000 -5.000000 -0.500000
vt 0.375000 0.000000
vt 0.625000 0.000000
vt 0.375000 0.250000
vt 0.625000 0.250000
vt 0.375000 0.500000
vt 0.625000 0.500000
vt 0.375000 0.750000
vt 0.625000 0.750000
vt 0.375000 1.000000
vt 0.625000 1.000000
vt 0.875000 0.000000
vt 0.875000 0.250000
vt 0.125000 0.000000
vt 0.125000 0.250000
vn 0.000000 0.000000 1.000000
vn 0.000000 0.000000 1.000000
vn 0.000000 0.000000 1.000000
vn 0.000000 0.000000 1.000000
vn 0.000000 1.000000 0.000000
vn 0.000000 1.000000 0.000000
vn 0.000000 1.000000 0.000000
vn 0.000000 1.000000 0.000000
vn 0.000000 0.000000 -1.000000
vn 0.000000 0.000000 -1.000000
vn 0.000000 0.000000 -1.000000
vn 0.000000 0.000000 -1.000000
vn 0.000000 -1.000000 0.000000
vn 0.000000 -1.000000 0.000000
vn 0.000000 -1.000000 0.000000
vn 0.000000 -1.000000 0.000000
vn 1.000000 0.000000 0.000000
vn 1.000000 0.000000 0.000000
vn 1.000000 0.000000 0.000000
vn 1.000000 0.000000 0.000000
vn -1.000000 0.000000 0.000000
vn -1.000000 0.000000 0.000000
vn -1.000000 0.000000 0.000000
vn -1.000000 0.000000 0.000000
s off
g pCube3
usemtl initialShadingGroup
f 9/15/25 10/16/26 12/18/27 11/17/28
f 11/17/29 12/18/30 14/20/31 13/19/32
f 13/19/33 14/20/34 16/22/35 15/21/36
f 15/21/37 16/22/38 10/24/39 9/23/40
f 10/16/41 16/25/42 14/26/43 12/18/44
f 15/27/45 9/15/46 11/17/47 13/28/48
g default
v 5.000000 -1.500000 -3.000000
v 5.000000 -1.500000 3.000000
v 5.000000 -5.000000 -3.000000
v 5.000000 -5.000000 3.000000
v 5.000000 0.000000 -0.000000
v 5.000000 -5.000000 -0.000000
v 5.000000 -2.000000 -3.000000
v 5.000000 -0.500000 -0.000000
v 5.000000 -2.000000 3.000000
v 5.000000 -2.250000 -3.500000
v 5.000000 -1.750000 -3.500000
v 5.000000 -2.250000 3.500000
v 5.000000 -1.750000 3.500000
v -3.000000 -5.000000 4.000000
v 3.000000 -5.000000 4.000000
v -3.000000 -1.500000 4.000000
v 3.000000 -1.500000 4.000000
v -2.999999 -1.500000 -5.000000
v 3.000000 -1.500000 -5.000000
v -3.000000 -5.000000 -5.000000
v 3.000000 -5.000000 -5.000000
v 0.000000 -5.000000 4.000000
v 0.000000 0.000000 4.000000
v 0.000000 0.000000 -5.000000
v 0.000000 -5.000000 -5.000000
v -3.000000 -2.000000 4.000000
v -3.000000 -2.000000 -5.000000
v 0.000000 -0.500000 -5.000000
v 3.000000 -2.000000 -5.000000
v 3.000000 -2.000000 4.000000
v 0.000000 -0.500000 4.000000
v -3.500000 -2.250000 4.000000
v -3.500000 -2.250000 -5.000000
v -3.500000 -1.750000 4.000000
v -3.500000 -1.750000 -5.000000
v 3.500000 -2.250000 -5.000000
v 3.500000 -2.250000 4.000000
v 3.500000 -1.750000 -5.000000
v 3.500000 -1.750000 4.000000
v 0.000000 -0.500000 4.500000
v 0.000000 0.000000 4.500000
v 3.000000 -2.000000 4.500000
v 3.000000 -1.500000 4.500000
v -3.000000 -2.000000 4.500000
v -3.000000 -1.500000 4.500000
v -3.500000 -1.750000 4.500000
v -3.500000 -2.250000 4.500000
v 3.500000 -2.250000 4.500000
v 3.500000 -1.750000 4.500000
v 0.000000 0.000000 0.000000
v 3.000000 -1.500000 -3.000000
v 3.500000 -1.750000 -3.500000
v 3.500000 -2.250000 -3.500000
v 3.000000 -1.500000 3.000000
v 3.500000 -1.750000 3.500000
v 3.500000 -2.250000 3.500000
v 3.000000 -2.000000 3.500000
v 3.000000 -2.000000 -3.500000
v 3.000000 -5.000000 3.500000
v 3.000000 -5.000000 -3.500000
v 3.000000 -2.000000 -3.000000
v 3.000000 -5.000000 -3.000000
v 3.000000 -2.000000 3.000000
v 3.000000 -5.000000 3.000000
v 0.000000 -5.000000 0.000000
v 3.000000 -5.000000 0.000000
vt 0.375000 0.500000
vt 0.625000 0.500000
vt 0.375000 0.750000
vt 0.625000 0.750000
vt 0.875000 0.000000
vt 0.875000 0.250000
vt 0.125000 0.000000
vt 0.125000 0.250000
vt 0.500000 0.500000
vt 0.500000 0.750000
vt 0.125000 0.200000
vt 0.375000 0.550000
vt 0.500000 0.550000
vt 0.625000 0.550000
vt 0.875000 0.200000
vt 0.125000 0.200000
vt 0.125000 0.250000
vt 0.875000 0.200000
vt 0.875000 0.250000
vt 0.375000 0.000000
vt 0.500000 0.000000
vt 0.500000 0.200000
vt 0.375000 0.200000
vt 0.375000 0.250000
vt 0.500000 0.250000
vt 0.500000 0.375000
vt 0.500000 0.500000
vt 0.375000 0.500000
vt 0.375000 0.550000
vt 0.500000 0.550000
vt 0.500000 0.750000
vt 0.375000 0.750000
vt 0.500000 0.875000
vt 0.500000 1.000000
vt 0.375000 1.000000
vt 0.852177 0.200000
vt 0.841951 0.000000
vt 0.875000 0.000000
vt 0.750000 0.375000
vt 0.125000 0.000000
vt 0.125000 0.200000
vt 0.625000 0.200000
vt 0.625000 0.000000
vt 0.735251 0.360251
vt 0.750000 0.375000
vt 0.625000 0.750000
vt 0.645389 0.479611
vt 0.625000 0.880911
vt 0.125000 0.200000
vt 0.375000 0.200000
vt 0.375000 0.250000
vt 0.125000 0.250000
vt 0.861418 0.250000
vt 0.861761 0.200000
vt 0.875000 0.200000
vt 0.875000 0.250000
vt 0.500000 0.250000
vt 0.500000 0.200000
vt 0.625000 0.200000
vt 0.625000 0.250000
vt 0.375000 0.200000
vt 0.375000 0.250000
vt 0.375000 0.250000
vt 0.375000 0.200000
vt 0.125000 0.250000
vt 0.625000 0.200000
vt 0.625000 0.250000
vt 0.625000 0.200000
vt 0.625000 0.250000
vt 0.638408 0.263408
vt 0.635300 0.250000
vt 0.636892 0.200000
vt 0.641941 0.200000
vt 0.653931 0.200000
vt 0.639830 0.000000
vt 0.837673 0.200000
vt 0.723700 0.401300
vt 0.625000 0.985170
vt 0.625000 1.000000
vt 0.625000 0.783049
vt 0.375000 0.200000
vt 0.375000 0.200000
vt 0.375000 0.200000
vt 0.375000 0.200000
vt 0.125000 0.200000
vt 0.125000 0.200000
vt 0.125000 0.200000
vt 0.125000 0.200000
vt 0.125000 0.200000
vt 0.125000 0.250000
vt 0.125000 0.250000
vt 0.125000 0.200000
vt 0.125000 0.250000
vt 0.125000 0.250000
vt 0.125000 0.250000
vt 0.125000 0.250000
vt 0.875000 0.250000
vt 0.875000 0.250000
vt 0.875000 0.250000
vt 0.875000 0.250000
vt 0.875000 0.200000
vt 0.875000 0.200000
vt 0.875000 0.200000
vt 0.875000 0.200000
vt 0.625000 0.250000
vn 0.000000 0.894427 -0.447214
vn 0.000000 0.894427 -0.447214
vn 0.000000 0.894427 -0.447214
vn 0.000000 0.894427 -0.447214
vn 1.000000 0.000000 0.000000
vn 1.000000 0.000000 0.000000
vn 1.000000 0.000000 0.000000
vn 1.000000 0.000000 0.000000
vn 0.000000 0.000000 -1.000000
vn 0.000000 0.000000 -1.000000
vn 0.000000 0.000000 -1.000000
vn 0.000000 0.000000 -1.000000
vn 0.000000 0.894427 0.447214
vn 0.000000 0.894427 0.447214
vn 0.000000 0.894427 0.447214
vn 0.000000 0.894427 0.447214
vn 1.000000 0.000000 0.000000
vn 1.000000 0.000000 0.000000
vn -0.000000 0.000000 -1.000000
vn -0.000000 0.000000 -1.000000
vn -0.000000 0.000000 -1.000000
vn -0.000000 0.000000 -1.000000
vn 0.000000 -0.894427 0.447214
vn 0.000000 -0.894427 0.447214
vn 0.000000 -0.894427 0.447214
vn 0.000000 -0.894427 0.447214
vn 0.000000 0.894427 0.447214
vn 0.000000 0.894427 0.447214
vn 0.000000 0.894427 0.447214
vn 0.000000 0.894427 0.447214
vn 1.000000 0.000000 0.000000
vn 1.000000 0.000000 0.000000
vn 1.000000 0.000000 0.000000
vn 1.000000 0.000000 0.000000
vn 1.000000 0.000000 0.000000
vn 1.000000 0.000000 0.000000
vn 1.000000 0.000000 0.000000
vn 1.000000 0.000000 0.000000
vn 1.000000 0.000000 0.000000
vn 1.000000 0.000000 0.000000
vn 1.000000 0.000000 0.000000
vn 1.000000 0.000000 0.000000
vn 1.000000 0.000000 0.000000
vn 1.000000 0.000000 0.000000
vn 1.000000 0.000000 0.000000
vn 1.000000 0.000000 0.000000
vn 0.000000 0.000000 1.000000
vn 0.000000 0.000000 1.000000
vn 0.000000 0.000000 1.000000
vn 0.000000 0.000000 1.000000
vn -0.447214 0.894427 -0.000000
vn -0.251634 0.967823 -0.000000
vn -0.329131 0.944284 -0.000000
vn -0.214862 0.976644 -0.000000
vn -0.447214 0.894427 -0.000000
vn 0.000000 0.000000 -1.000000
vn 0.000000 0.000000 -1.000000
vn 0.000000 0.000000 -1.000000
vn 0.000000 0.000000 -1.000000
vn 0.000000 -1.000000 0.000000
vn 0.000000 -1.000000 0.000000
vn 0.000000 -1.000000 0.000000
vn 0.000000 -1.000000 0.000000
vn 0.000000 -1.000000 0.000000
vn 1.000000 0.000000 0.000000
vn 1.000000 0.000000 0.000000
vn 1.000000 0.000000 0.000000
vn 1.000000 0.000000 0.000000
vn -1.000000 0.000000 0.000000
vn -1.000000 0.000000 0.000000
vn -1.000000 0.000000 0.000000
vn -1.000000 0.000000 0.000000
vn 0.000000 0.000000 1.000000
vn 0.000000 0.000000 1.000000
vn 0.447214 0.894427 0.000000
vn 0.447214 0.894427 0.000000
vn 0.000000 0.000000 -1.000000
vn 0.000000 0.000000 -1.000000
vn 0.000000 -1.000000 0.000000
vn 0.000000 -1.000000 0.000000
vn -1.000000 0.000000 0.000000
vn -1.000000 0.000000 0.000000
vn -1.000000 0.000000 0.000000
vn -1.000000 0.000000 0.000000
vn 1.000000 0.000000 0.000000
vn 1.000000 0.000000 0.000000
vn 1.000000 0.000000 0.000000
vn 1.000000 0.000000 0.000000
vn 0.000000 0.000000 1.000000
vn 0.000000 0.000000 1.000000
vn 0.000000 0.000000 1.000000
vn 0.000000 0.000000 1.000000
vn 0.000000 0.000000 1.000000
vn 0.000000 0.000000 1.000000
vn 0.447213 -0.894427 0.000000
vn 0.447213 -0.894427 0.000000
vn 0.447213 -0.894427 0.000000
vn 0.447213 -0.894427 0.000000
vn 0.000000 0.000000 1.000000
vn 0.000000 0.000000 1.000000
vn -0.447213 0.894427 -0.000000
vn -0.447213 0.894427 -0.000000
vn -0.447213 -0.894427 0.000000
vn -0.447213 -0.894427 0.000000
vn -0.447213 -0.894427 0.000000
vn -0.447213 -0.894427 0.000000
vn 0.447214 0.894427 0.000000
vn 0.447214 0.894427 0.000000
vn 0.000000 0.000000 1.000000
vn 0.000000 0.000000 1.000000
vn -0.447214 -0.894427 0.000000
vn -0.447214 -0.894427 0.000000
vn -0.447214 -0.894427 0.000000
vn -0.447214 -0.894427 0.000000
vn 0.447214 0.894427 0.000000
vn 0.447214 0.894427 0.000000
vn 0.447214 0.894427 0.000000
vn 0.447214 -0.894427 0.000000
vn 0.447214 -0.894427 0.000000
vn 0.447214 -0.894427 0.000000
vn -0.447214 0.894427 0.000000
vn -0.447214 0.894427 0.000000
vn -0.447213 0.894427 0.000000
vn -1.000000 0.000000 0.000000
vn -1.000000 0.000000 0.000000
vn 0.447213 -0.894427 0.000000
vn -0.447213 -0.894427 0.000000
vn -0.447213 -0.894427 0.000000
vn 1.000000 0.000000 0.000000
vn 1.000000 0.000000 0.000000
vn 1.000000 0.000000 0.000000
vn 1.000000 0.000000 0.000000
vn 0.447214 0.894427 0.000000
vn 0.447213 0.894427 0.000000
vn 0.447214 0.894427 0.000000
vn 0.447214 0.894427 0.000000
vn 1.000000 0.000000 0.000000
vn 1.000000 0.000000 0.000000
vn -0.447214 -0.894427 0.000000
vn -0.447214 -0.894427 0.000000
vn -0.447214 -0.894427 0.000000
vn 1.000000 0.000000 0.000000
vn 1.000000 0.000000 0.000000
vn 1.000000 0.000000 0.000000
vn 1.000000 0.000000 0.000000
vn 1.000000 0.000000 0.000000
vn 1.000000 0.000000 0.000000
vn 1.000000 0.000000 0.000000
vn 1.000000 0.000000 0.000000
vn 0.000000 -1.000000 0.000000
vn 0.000000 -1.000000 0.000000
vn 0.000000 -1.000000 0.000000
vn 0.000000 -1.000000 0.000000
vn 0.000000 -1.000000 0.000000
vn -0.447214 -0.894427 0.000000
vn -0.000000 0.000000 1.000000
vn -0.000000 0.000000 1.000000
vn -0.000000 0.000000 1.000000
vn -0.000000 0.000000 1.000000
vn 0.000000 0.894427 -0.447214
vn 0.000000 0.894427 -0.447214
vn 0.000000 0.894427 -0.447214
vn 0.000000 0.894427 -0.447214
vn 0.000000 -1.000000 0.000000
vn 0.000000 -1.000000 0.000000
vn 0.000000 -1.000000 0.000000
vn 0.000000 -1.000000 0.000000
vn 0.000000 -1.000000 0.000000
vn 0.000000 -1.000000 0.000000
vn 0.000000 -1.000000 0.000000
vn 0.000000 -1.000000 0.000000
vn 0.000000 0.000000 1.000000
vn 0.000000 0.000000 1.000000
vn 0.000000 0.000000 1.000000
vn 0.000000 0.000000 1.000000
vn 0.000000 -0.894427 -0.447214
vn 0.000000 -0.894427 -0.447214
vn 0.000000 -0.894427 -0.447214
vn 0.000000 -0.894427 -0.447214
vn 0.000000 0.000000 -1.000000
vn 0.000000 0.000000 -1.000000
vn 0.000000 0.000000 -1.000000
vn 0.000000 0.000000 -1.000000
vn 0.000000 0.000000 -1.000000
vn 0.000000 0.000000 -1.000000
vn 0.000000 0.000000 -1.000000
vn 0.000000 0.000000 -1.000000
vn 0.000000 0.000000 -1.000000
vn 0.000000 0.000000 -1.000000
vn 0.000000 0.000000 -1.000000
vn 0.000000 0.000000 -1.000000
vn 0.000000 0.000000 -1.000000
vn 0.000000 0.000000 -1.000000
vn 0.000000 0.000000 -1.000000
vn 0.000000 0.000000 -1.000000
s off
g pasted__pCube2
usemtl initialShadingGroup
f 21/37/49 17/29/50 67/72/51 66/54/52
s 1
f 23/40/53 24/41/54 22/38/55 19/31/56
s off
f 23/39/57 19/35/58 78/105/59 77/104/60
f 18/30/61 21/37/62 66/54/63 70/98/64
s 1
f 22/38/55 24/41/54 25/42/65 20/32/66
s off
f 27/45/67 26/44/68 69/82/69 68/81/70
f 26/44/71 23/39/72 77/104/73 69/82/74
f 29/47/75 18/34/76 70/98/77 71/99/78
f 21/37/79 18/30/80 25/42/81 24/41/82
f 28/46/83 25/42/84 18/34/85 29/47/86
f 17/29/87 21/37/88 24/41/89 23/40/90
f 26/44/91 27/45/92 17/29/93 23/39/94
s 2
f 30/48/95 38/49/96 47/50/97 42/51/98
s 3
f 32/52/99 39/53/100 66/54/101 40/55/102 34/56/103
s 4
f 43/57/104 44/58/105 41/59/106 36/60/107
s 5
f 36/60/108 41/59/109 81/61/110 38/62/111 30/63/112
s 6
f 74/64/113 76/65/114 37/66/115 45/67/116
s off
f 36/68/117 30/48/118 42/51/119 43/69/120
s 2
f 46/70/121 47/50/97 38/49/96 31/71/122
s 3
f 40/55/102 66/54/101 67/72/123 35/73/124
s 4
f 41/59/106 44/58/105 45/67/125 37/74/126
s 5
f 80/75/127 81/61/110 82/76/128
s 7
f 49/77/129 48/78/130 50/79/131 51/80/132
s off
f 68/81/133 69/82/134 52/83/135 54/84/136
s 8
f 57/85/137 56/86/138 58/87/139 59/88/140
f 60/89/141 56/86/138 57/85/137 61/90/142
s 9
f 43/69/143 42/51/144 48/78/145 49/77/146
s 8
f 60/89/141 61/90/142 62/91/147 63/92/148
s 3
f 32/52/99 34/93/103 51/80/149 50/79/150
s 10
f 69/82/151 74/64/152 45/67/153 52/83/154
s 3
f 35/73/124 67/72/123 68/81/155 54/84/156
s 8
f 59/88/140 58/87/139 64/94/157 65/95/158
s 11
f 47/109/159 46/110/160 58/111/161 56/112/162
s 3
f 33/113/163 39/114/100 57/115/164 59/116/165
s 9
f 42/117/144 47/118/166 56/119/167 60/120/168
s 3
f 39/121/100 32/122/99 61/123/169 57/124/170
f 32/125/99 50/126/150 62/127/171 61/128/169
s 7
f 50/126/131 48/129/130 63/130/172 62/127/173
s 9
f 48/129/145 42/131/144 60/132/168 63/130/174
s 11
f 46/70/160 53/96/175 64/94/176 58/87/161
s 12
f 53/96/177 55/97/178 65/95/179 64/94/180
s 3
f 55/97/181 33/133/163 59/88/165 65/95/182
f 70/98/183 66/54/101 39/53/100 33/133/163
f 71/99/184 70/98/183 33/133/163 55/97/181
s 12
f 53/96/177 72/100/185 71/99/186 55/97/178
s 11
f 46/70/160 73/101/187 72/100/188 53/96/175
f 72/100/188 73/101/187 79/102/189
s 13
f 31/71/190 75/103/191 73/101/192 46/70/193
s 6
f 77/104/194 78/105/195 76/65/114 74/64/113
s 13
f 73/101/192 75/103/191 80/75/196 79/102/197
s 5
f 38/62/111 81/61/110 80/75/127 75/106/198 31/107/199
f 78/105/200 81/61/110 41/59/109 37/74/201 76/108/202
f 82/76/128 81/61/110 78/105/200
s 10
f 69/82/151 77/104/203 74/64/152
s off
f 29/47/204 71/99/205 72/100/206 28/46/207
f 27/45/208 68/81/209 67/72/210 17/36/211
f 22/38/212 82/76/213 78/105/214 19/31/215
f 20/32/216 80/75/217 82/76/218 22/38/219
f 25/43/220 79/102/221 80/75/222 20/33/223
f 28/46/224 72/100/225 79/102/226 25/43/227
f 52/83/228 45/67/229 35/73/230 54/84/231
f 40/55/232 35/73/233 45/67/234 44/58/235
f 34/56/236 40/55/237 44/58/238 43/57/239
f 49/77/240 51/80/241 34/56/242 43/69/243
