# This file uses centimeters as units for non-parametric coordinates.

mtllib HouseLeft.mtl
g default
v 3.000000 -5.000000 -5.000000
v -3.000000 -5.000000 -5.000000
v 3.000000 -1.500000 -5.000000
v -3.000000 -1.500000 -5.000000
v 3.000000 -1.500000 4.000000
v -3.000000 -1.500000 4.000000
v 3.000000 -5.000000 4.000000
v -3.000000 -5.000000 4.000000
v 0.000000 -5.000000 -5.000000
v 0.000000 0.000000 -5.000000
v -0.000000 0.000000 4.000000
v -0.000000 -5.000000 4.000000
v 3.000000 -2.000000 -5.000000
v 3.000000 -2.000000 4.000000
v -0.000000 -0.500000 4.000000
v -3.000000 -2.000000 4.000000
v -3.000000 -2.000000 -5.000000
v 0.000000 -0.500000 -5.000000
v 3.500000 -2.250000 -5.000000
v 3.500000 -2.250000 4.000000
v 3.500000 -1.750000 -5.000000
v 3.500000 -1.750000 4.000000
v -3.500000 -2.250000 4.000000
v -3.500000 -2.250000 -5.000000
v -3.500000 -1.750000 4.000000
v -3.500000 -1.750000 -5.000000
v 3.000000 -1.500000 4.500000
v -0.000000 0.000000 4.500000
v -0.000000 -0.500000 4.500000
v 3.000000 -2.000000 4.500000
v -3.000000 -2.000000 4.500000
v -3.000000 -1.500000 4.500000
v 3.500000 -2.250000 4.500000
v 3.500000 -1.750000 4.500000
v -3.500000 -1.750000 4.500000
v -3.500000 -2.250000 4.500000
vt 0.375000 0.000000
vt 0.625000 0.000000
vt 0.375000 0.250000
vt 0.625000 0.250000
vt 0.375000 0.500000
vt 0.625000 0.500000
vt 0.375000 0.750000
vt 0.625000 0.750000
vt 0.375000 1.000000
vt 0.625000 1.000000
vt 0.875000 0.000000
vt 0.875000 0.250000
vt 0.125000 0.000000
vt 0.125000 0.250000
vt 0.500000 0.000000
vt 0.500000 1.000000
vt 0.500000 0.250000
vt 0.500000 0.500000
vt 0.500000 0.750000
vt 0.375000 0.200000
vt 0.125000 0.200000
vt 0.375000 0.550000
vt 0.500000 0.550000
vt 0.625000 0.550000
vt 0.875000 0.200000
vt 0.625000 0.200000
vt 0.500000 0.200000
vt 0.125000 0.200000
vt 0.375000 0.200000
vt 0.375000 0.250000
vt 0.125000 0.250000
vt 0.625000 0.200000
vt 0.875000 0.200000
vt 0.875000 0.250000
vt 0.625000 0.250000
vt 0.375000 0.500000
vt 0.500000 0.500000
vt 0.500000 0.550000
vt 0.375000 0.550000
vt 0.625000 0.550000
vt 0.625000 0.500000
vt 0.500000 0.200000
vt 0.625000 0.200000
vt 0.625000 0.250000
vt 0.500000 0.250000
vt 0.375000 0.200000
vt 0.375000 0.250000
vt 0.375000 0.250000
vt 0.375000 0.200000
vt 0.125000 0.200000
vt 0.125000 0.200000
vt 0.125000 0.250000
vt 0.125000 0.250000
vt 0.875000 0.250000
vt 0.875000 0.250000
vt 0.875000 0.200000
vt 0.875000 0.200000
vn 0.000000 0.000000 -1.000000
vn 0.000000 0.000000 -1.000000
vn 0.000000 0.000000 -1.000000
vn 0.000000 0.000000 -1.000000
vn 0.447214 0.894427 0.000000
vn 0.000000 1.000000 0.000000
vn 0.000000 1.000000 0.000000
vn 0.447214 0.894427 0.000000
vn -0.000000 0.000000 1.000000
vn -0.000000 0.000000 1.000000
vn -0.000000 0.000000 1.000000
vn -0.000000 0.000000 1.000000
vn 0.000000 -1.000000 -0.000000
vn 0.000000 -1.000000 -0.000000
vn 0.000000 -1.000000 -0.000000
vn 0.000000 -1.000000 -0.000000
vn -1.000000 0.000000 -0.000000
vn -1.000000 0.000000 -0.000000
vn -1.000000 0.000000 -0.000000
vn -1.000000 0.000000 -0.000000
vn 1.000000 0.000000 0.000000
vn 1.000000 0.000000 0.000000
vn 1.000000 0.000000 0.000000
vn 1.000000 0.000000 0.000000
vn 0.000000 0.000000 -1.000000
vn 0.000000 0.000000 -1.000000
vn -0.447214 0.894427 -0.000000
vn -0.447214 0.894427 -0.000000
vn 0.000000 0.000000 1.000000
vn 0.000000 0.000000 1.000000
vn 0.000000 -1.000000 -0.000000
vn 0.000000 -1.000000 -0.000000
vn 1.000000 0.000000 0.000000
vn 1.000000 0.000000 0.000000
vn 1.000000 0.000000 0.000000
vn 1.000000 0.000000 0.000000
vn 0.000000 0.000000 1.000000
vn 0.000000 0.000000 1.000000
vn 0.000000 0.000000 1.000000
vn 0.000000 0.000000 1.000000
vn 0.000000 0.000000 1.000000
vn 0.000000 0.000000 1.000000
vn -1.000000 0.000000 -0.000000
vn -1.000000 0.000000 -0.000000
vn -1.000000 0.000000 -0.000000
vn -1.000000 0.000000 -0.000000
vn -0.447213 -0.894427 -0.000000
vn -0.447213 -0.894427 -0.000000
vn -0.447213 -0.894427 -0.000000
vn -0.447213 -0.894427 -0.000000
vn 0.447213 0.894427 0.000000
vn 0.447213 0.894427 0.000000
vn 0.000001 0.000000 1.000000
vn 0.000001 0.000000 1.000000
vn 0.447213 -0.894427 0.000000
vn 0.447213 -0.894427 0.000000
vn 0.447213 -0.894427 0.000000
vn 0.447213 -0.894427 0.000000
vn -0.000000 0.000000 1.000000
vn -0.000000 0.000000 1.000000
vn -0.447213 0.894427 -0.000000
vn -0.447213 0.894427 -0.000000
vn 0.447214 0.894427 0.000000
vn 0.447214 0.894427 0.000000
vn -0.447214 -0.894427 -0.000000
vn -0.447214 -0.894427 -0.000000
vn -0.447214 -0.894427 -0.000000
vn 0.447214 -0.894427 0.000000
vn 0.447214 -0.894427 0.000000
vn 0.447214 -0.894427 0.000000
vn -0.447214 0.894427 -0.000000
vn -0.447214 0.894427 -0.000000
vn -0.447213 -0.894427 -0.000000
vn 1.000000 0.000000 0.000000
vn 1.000000 0.000000 0.000000
vn 0.447213 0.894427 0.000000
vn -0.447213 0.894427 -0.000000
vn -1.000000 0.000000 -0.000000
vn -1.000000 0.000000 -0.000000
vn 0.447213 -0.894427 0.000000
vn 0.000000 0.000000 -1.000000
vn 0.000000 0.000000 -1.000000
vn 0.000000 0.000000 -1.000000
vn 0.000000 0.000000 -1.000000
vn -0.000000 0.000000 -1.000000
vn -0.000000 0.000000 -1.000000
vn -0.000000 0.000000 -1.000000
vn -0.000000 0.000000 -1.000000
vn 0.000000 0.000000 -1.000000
vn 0.000000 0.000000 -1.000000
vn 0.000000 0.000000 -1.000000
vn 0.000000 0.000000 -1.000000
vn 0.000000 0.000000 -1.000000
vn 0.000000 0.000000 -1.000000
vn 0.000000 0.000000 -1.000000
vn 0.000000 0.000000 -1.000000
s 1
g pCube2
usemtl initialShadingGroup
f 1/1/1 9/15/2 18/27/3 13/20/4
s 2
f 3/3/5 10/17/6 11/18/7 5/5/8
s 3
f 14/22/9 15/23/10 12/19/11 7/7/12
s 4
f 7/7/13 12/19/14 9/16/15 1/9/16
s off
f 2/2/17 8/11/18 16/25/19 17/26/20
f 7/13/21 1/1/22 13/20/23 14/21/24
s 1
f 17/26/25 18/27/3 9/15/2 2/2/26
s 2
f 11/18/7 10/17/6 4/4/27 6/6/28
s 3
f 12/19/11 15/23/10 16/24/29 8/8/30
s 4
f 9/16/15 12/19/14 8/8/31 2/10/32
s 5
f 20/28/33 19/29/34 21/30/35 22/31/36
s 6
f 27/36/37 28/37/38 29/38/39 30/39/40
f 31/40/41 29/38/39 28/37/38 32/41/42
s 7
f 24/32/43 23/33/44 25/34/45 26/35/46
s 8
f 14/21/47 13/20/48 19/29/49 20/28/50
s 2
f 3/3/5 5/14/8 22/31/51 21/30/52
s 6
f 27/53/37 30/50/40 33/51/53 34/52/54
s 9
f 17/26/55 16/25/56 23/33/57 24/32/58
s 6
f 31/57/41 32/54/42 35/55/59 36/56/60
s 2
f 6/12/28 4/4/27 26/35/61 25/34/62
f 5/5/8 11/18/7 28/37/63 27/36/64
s 8
f 15/23/65 14/22/47 30/39/66 29/38/67
s 9
f 16/24/56 15/23/68 29/38/69 31/40/70
s 2
f 11/18/7 6/6/28 32/41/71 28/37/72
s 8
f 14/27/47 20/26/50 33/43/73 30/42/66
s 5
f 20/4/33 22/17/36 34/45/74 33/44/75
s 2
f 22/20/51 5/27/8 27/42/64 34/46/76
f 6/17/28 25/3/62 35/47/77 32/45/71
s 7
f 25/3/45 23/30/44 36/48/78 35/47/79
s 9
f 23/30/57 16/29/56 31/49/70 36/48/80
s off
f 19/29/81 13/20/82 3/3/83 21/30/84
f 10/17/85 3/3/86 13/20/87 18/27/88
f 4/4/89 10/17/90 18/27/91 17/26/92
f 17/26/93 24/32/94 26/35/95 4/4/96
g default
v 1.000000 -2.000000 2.500000
v 2.500000 -2.000000 2.500000
v 1.000000 1.000000 2.500000
v 2.500000 1.000000 2.500000
v 1.000000 1.000000 1.000000
v 2.500000 1.000000 1.000000
v 1.000000 -2.000000 1.000000
v 2.500000 -2.000000 1.000000
vt 0.375000 0.000000
vt 0.625000 0.000000
vt 0.375000 0.250000
vt 0.625000 0.250000
vt 0.375000 0.500000
vt 0.625000 0.500000
vt 0.375000 0.750000
vt 0.625000 0.750000
vt 0.375000 1.000000
vt 0.625000 1.000000
vt 0.875000 0.000000
vt 0.875000 0.250000
vt 0.125000 0.000000
vt 0.125000 0.250000
vn 0.000000 0.000000 1.000000
vn 0.000000 0.000000 1.000000
vn 0.000000 0.000000 1.000000
vn 0.000000 0.000000 1.000000
vn 0.000000 1.000000 0.000000
vn 0.000000 1.000000 0.000000
vn 0.000000 1.000000 0.000000
vn 0.000000 1.000000 0.000000
vn 0.000000 0.000000 -1.000000
vn 0.000000 0.000000 -1.000000
vn 0.000000 0.000000 -1.000000
vn 0.000000 0.000000 -1.000000
vn 0.000000 -1.000000 0.000000
vn 0.000000 -1.000000 0.000000
vn 0.000000 -1.000000 0.000000
vn 0.000000 -1.000000 0.000000
vn 1.000000 0.000000 0.000000
vn 1.000000 0.000000 0.000000
vn 1.000000 0.000000 0.000000
vn 1.000000 0.000000 0.000000
vn -1.000000 0.000000 0.000000
vn -1.000000 0.000000 0.000000
vn -1.000000 0.000000 0.000000
vn -1.000000 0.000000 0.000000
s off
g pCube4
usemtl initialShadingGroup
f 37/58/97 38/59/98 40/61/99 39/60/100
f 39/60/101 40/61/102 42/63/103 41/62/104
f 41/62/105 42/63/106 44/65/107 43/64/108
f 43/64/109 44/65/110 38/67/111 37/66/112
f 38/59/113 44/68/114 42/69/115 40/61/116
f 43/70/117 37/58/118 39/60/119 41/71/120
g default
v -3.125000 -5.000000 0.500000
v -2.875000 -5.000000 0.500000
v -3.125000 -3.000000 0.500000
v -2.875000 -3.000000 0.500000
v -3.125000 -3.000000 -0.500000
v -2.875000 -3.000000 -0.500000
v -3.125000 -5.000000 -0.500000
v -2.875000 -5.000000 -0.500000
vt 0.375000 0.000000
vt 0.625000 0.000000
vt 0.375000 0.250000
vt 0.625000 0.250000
vt 0.375000 0.500000
vt 0.625000 0.500000
vt 0.375000 0.750000
vt 0.625000 0.750000
vt 0.375000 1.000000
vt 0.625000 1.000000
vt 0.875000 0.000000
vt 0.875000 0.250000
vt 0.125000 0.000000
vt 0.125000 0.250000
vn 0.000000 0.000000 1.000000
vn 0.000000 0.000000 1.000000
vn 0.000000 0.000000 1.000000
vn 0.000000 0.000000 1.000000
vn 0.000000 1.000000 0.000000
vn 0.000000 1.000000 0.000000
vn 0.000000 1.000000 0.000000
vn 0.000000 1.000000 0.000000
vn 0.000000 0.000000 -1.000000
vn 0.000000 0.000000 -1.000000
vn 0.000000 0.000000 -1.000000
vn 0.000000 0.000000 -1.000000
vn 0.000000 -1.000000 0.000000
vn 0.000000 -1.000000 0.000000
vn 0.000000 -1.000000 0.000000
vn 0.000000 -1.000000 0.000000
vn 1.000000 0.000000 0.000000
vn 1.000000 0.000000 0.000000
vn 1.000000 0.000000 0.000000
vn 1.000000 0.000000 0.000000
vn -1.000000 0.000000 0.000000
vn -1.000000 0.000000 0.000000
vn -1.000000 0.000000 0.000000
vn -1.000000 0.000000 0.000000
s off
g pCube3
usemtl initialShadingGroup
f 45/72/121 46/73/122 48/75/123 47/74/124
f 47/74/125 48/75/126 50/77/127 49/76/128
f 49/76/129 50/77/130 52/79/131 51/78/132
f 51/78/133 52/79/134 46/81/135 45/80/136
f 46/73/137 52/82/138 50/83/139 48/75/140
f 51/84/141 45/72/142 47/74/143 49/85/144
