# This file uses centimeters as units for non-parametric coordinates.

mtllib HouseBothSides1.mtl
g default
v 3.000000 -5.000000 -5.000000
v -3.000000 -5.000000 -5.000000
v 3.000000 -1.500000 -5.000000
v -3.000000 -1.500000 -5.000000
v 3.000000 -1.500000 5.000000
v -3.000000 -1.500000 5.000000
v 3.000000 -5.000000 5.000000
v -3.000000 -5.000000 5.000000
v 0.000000 -5.000000 -5.000000
v 0.000000 0.000000 -5.000000
v -0.000000 0.000000 5.000000
v -0.000000 -5.000000 5.000000
v 3.000000 -2.000000 -5.000000
v 3.000000 -2.000000 5.000000
v -0.000000 -0.500000 5.000000
v -3.000000 -2.000000 5.000000
v -3.000000 -2.000000 -5.000000
v 0.000000 -0.500000 -5.000000
v 3.500000 -2.250000 -5.000000
v 3.500000 -2.250000 5.000000
v 3.500000 -1.750000 -5.000000
v 3.500000 -1.750000 5.000000
v -3.500000 -2.250000 5.000000
v -3.500000 -2.250000 -5.000000
v -3.500000 -1.750000 5.000000
v -3.500000 -1.750000 -5.000000
vt 0.375000 0.000000
vt 0.625000 0.000000
vt 0.375000 0.250000
vt 0.625000 0.250000
vt 0.250000 0.375000
vt 0.750000 0.375000
vt 0.375000 0.750000
vt 0.625000 0.750000
vt 0.375000 1.000000
vt 0.625000 1.000000
vt 0.875000 0.000000
vt 0.125000 0.000000
vt 0.500000 0.000000
vt 0.500000 1.000000
vt 0.500000 0.250000
vt 0.500000 0.500000
vt 0.500000 0.750000
vt 0.375000 0.200000
vt 0.250000 0.375000
vt 0.500000 0.550000
vt 0.750000 0.375000
vt 0.625000 0.200000
vt 0.500000 0.200000
vt 0.125000 0.200000
vt 0.375000 0.200000
vt 0.375000 0.250000
vt 0.125000 0.250000
vt 0.625000 0.200000
vt 0.875000 0.200000
vt 0.875000 0.250000
vt 0.625000 0.250000
vn 0.000000 0.000000 -1.000000
vn 0.000000 0.000000 -1.000000
vn 0.000000 0.000000 -1.000000
vn 0.000000 0.000000 -1.000000
vn 0.447214 0.894427 0.000000
vn 0.000000 1.000000 0.000000
vn 0.000000 1.000000 0.000000
vn 0.447214 0.894427 0.000000
vn -0.000000 0.000000 1.000000
vn -0.000000 0.000000 1.000000
vn -0.000000 0.000000 1.000000
vn -0.000000 0.000000 1.000000
vn 0.000000 -1.000000 -0.000000
vn 0.000000 -1.000000 -0.000000
vn 0.000000 -1.000000 -0.000000
vn 0.000000 -1.000000 -0.000000
vn -1.000000 0.000000 -0.000000
vn -1.000000 0.000000 -0.000000
vn -1.000000 0.000000 -0.000000
vn -1.000000 0.000000 -0.000000
vn 1.000000 0.000000 0.000000
vn 1.000000 0.000000 0.000000
vn 1.000000 0.000000 0.000000
vn 1.000000 0.000000 0.000000
vn 0.000000 0.000000 -1.000000
vn 0.000000 0.000000 -1.000000
vn -0.447214 0.894427 -0.000000
vn -0.447214 0.894427 -0.000000
vn -0.000000 0.000000 1.000000
vn -0.000000 0.000000 1.000000
vn 0.000000 -1.000000 -0.000000
vn 0.000000 -1.000000 -0.000000
vn 1.000000 0.000000 0.000000
vn 1.000000 0.000000 0.000000
vn 1.000000 0.000000 0.000000
vn 1.000000 0.000000 0.000000
vn -1.000000 0.000000 -0.000000
vn -1.000000 0.000000 -0.000000
vn -1.000000 0.000000 -0.000000
vn -1.000000 0.000000 -0.000000
vn -0.447213 -0.894427 -0.000000
vn -0.447213 -0.894427 -0.000000
vn -0.447213 -0.894427 -0.000000
vn -0.447213 -0.894427 -0.000000
vn 0.447213 0.894427 0.000000
vn 0.447213 0.894427 0.000000
vn 0.447213 -0.894427 0.000000
vn 0.447213 -0.894427 0.000000
vn 0.447213 -0.894427 0.000000
vn 0.447213 -0.894427 0.000000
vn -0.447213 0.894427 -0.000000
vn -0.447213 0.894427 -0.000000
vn 0.000000 0.000000 -1.000000
vn 0.000000 0.000000 -1.000000
vn 0.000000 0.000000 -1.000000
vn 0.000000 0.000000 -1.000000
vn -0.000000 0.000000 -1.000000
vn -0.000000 0.000000 -1.000000
vn -0.000000 0.000000 -1.000000
vn -0.000000 0.000000 -1.000000
vn 0.000000 0.000000 -1.000000
vn 0.000000 0.000000 -1.000000
vn 0.000000 0.000000 -1.000000
vn 0.000000 0.000000 -1.000000
vn 0.000000 0.000000 -1.000000
vn 0.000000 0.000000 -1.000000
vn 0.000000 0.000000 -1.000000
vn 0.000000 0.000000 -1.000000
vn -0.000000 0.000000 1.000000
vn -0.000000 0.000000 1.000000
vn -0.000000 0.000000 1.000000
vn -0.000000 0.000000 1.000000
vn 0.000000 0.000000 1.000000
vn 0.000000 0.000000 1.000000
vn 0.000000 0.000000 1.000000
vn 0.000000 0.000000 1.000000
vn -0.000000 0.000000 1.000000
vn -0.000000 0.000000 1.000000
vn -0.000000 0.000000 1.000000
vn -0.000000 0.000000 1.000000
vn -0.000000 0.000000 1.000000
vn -0.000000 0.000000 1.000000
vn -0.000000 0.000000 1.000000
vn -0.000000 0.000000 1.000000
s 1
g pCube2
usemtl initialShadingGroup
f 1/1/1 9/13/2 18/23/3 13/18/4
s 2
f 3/3/5 10/15/6 11/16/7 5/5/8
s 3
f 14/19/9 15/20/10 12/17/11 7/7/12
s 4
f 7/7/13 12/17/14 9/14/15 1/9/16
s off
f 2/2/17 8/11/18 16/21/19 17/22/20
f 7/12/21 1/1/22 13/18/23 14/19/24
s 1
f 17/22/25 18/23/3 9/13/2 2/2/26
s 2
f 11/16/7 10/15/6 4/4/27 6/6/28
s 3
f 12/17/11 15/20/10 16/21/29 8/8/30
s 4
f 9/14/15 12/17/14 8/8/31 2/10/32
s off
f 20/24/33 19/25/34 21/26/35 22/27/36
f 24/28/37 23/29/38 25/30/39 26/31/40
f 14/19/41 13/18/42 19/25/43 20/24/44
s 2
f 3/3/5 5/5/8 22/27/45 21/26/46
s off
f 17/22/47 16/21/48 23/29/49 24/28/50
s 2
f 6/6/28 4/4/27 26/31/51 25/30/52
s off
f 19/25/53 13/18/54 3/3/55 21/26/56
f 10/15/57 3/3/58 13/18/59 18/23/60
f 4/4/61 10/15/62 18/23/63 17/22/64
f 17/22/65 24/28/66 26/31/67 4/4/68
f 23/29/69 16/21/70 6/6/71 25/30/72
f 11/16/73 6/6/74 16/21/75 15/20/76
f 5/5/77 11/16/78 15/20/79 14/19/80
f 14/19/81 20/24/82 22/27/83 5/5/84
g default
v -3.125000 -5.000000 0.500000
v -2.875000 -5.000000 0.500000
v -3.125000 -3.000000 0.500000
v -2.875000 -3.000000 0.500000
v -3.125000 -3.000000 -0.500000
v -2.875000 -3.000000 -0.500000
v -3.125000 -5.000000 -0.500000
v -2.875000 -5.000000 -0.500000
vt 0.375000 0.000000
vt 0.625000 0.000000
vt 0.375000 0.250000
vt 0.625000 0.250000
vt 0.375000 0.500000
vt 0.625000 0.500000
vt 0.375000 0.750000
vt 0.625000 0.750000
vt 0.375000 1.000000
vt 0.625000 1.000000
vt 0.875000 0.000000
vt 0.875000 0.250000
vt 0.125000 0.000000
vt 0.125000 0.250000
vn 0.000000 0.000000 1.000000
vn 0.000000 0.000000 1.000000
vn 0.000000 0.000000 1.000000
vn 0.000000 0.000000 1.000000
vn 0.000000 1.000000 0.000000
vn 0.000000 1.000000 0.000000
vn 0.000000 1.000000 0.000000
vn 0.000000 1.000000 0.000000
vn 0.000000 0.000000 -1.000000
vn 0.000000 0.000000 -1.000000
vn 0.000000 0.000000 -1.000000
vn 0.000000 0.000000 -1.000000
vn 0.000000 -1.000000 0.000000
vn 0.000000 -1.000000 0.000000
vn 0.000000 -1.000000 0.000000
vn 0.000000 -1.000000 0.000000
vn 1.000000 0.000000 0.000000
vn 1.000000 0.000000 0.000000
vn 1.000000 0.000000 0.000000
vn 1.000000 0.000000 0.000000
vn -1.000000 0.000000 0.000000
vn -1.000000 0.000000 0.000000
vn -1.000000 0.000000 0.000000
vn -1.000000 0.000000 0.000000
s off
g pCube3
usemtl initialShadingGroup
f 27/32/85 28/33/86 30/35/87 29/34/88
f 29/34/89 30/35/90 32/37/91 31/36/92
f 31/36/93 32/37/94 34/39/95 33/38/96
f 33/38/97 34/39/98 28/41/99 27/40/100
f 28/33/101 34/42/102 32/43/103 30/35/104
f 33/44/105 27/32/106 29/34/107 31/45/108
g default
v 1.000000 -2.000000 2.500000
v 2.500000 -2.000000 2.500000
v 1.000000 1.000000 2.500000
v 2.500000 1.000000 2.500000
v 1.000000 1.000000 1.000000
v 2.500000 1.000000 1.000000
v 1.000000 -2.000000 1.000000
v 2.500000 -2.000000 1.000000
vt 0.375000 0.000000
vt 0.625000 0.000000
vt 0.375000 0.250000
vt 0.625000 0.250000
vt 0.375000 0.500000
vt 0.625000 0.500000
vt 0.375000 0.750000
vt 0.625000 0.750000
vt 0.375000 1.000000
vt 0.625000 1.000000
vt 0.875000 0.000000
vt 0.875000 0.250000
vt 0.125000 0.000000
vt 0.125000 0.250000
vn 0.000000 0.000000 1.000000
vn 0.000000 0.000000 1.000000
vn 0.000000 0.000000 1.000000
vn 0.000000 0.000000 1.000000
vn 0.000000 1.000000 0.000000
vn 0.000000 1.000000 0.000000
vn 0.000000 1.000000 0.000000
vn 0.000000 1.000000 0.000000
vn 0.000000 0.000000 -1.000000
vn 0.000000 0.000000 -1.000000
vn 0.000000 0.000000 -1.000000
vn 0.000000 0.000000 -1.000000
vn 0.000000 -1.000000 0.000000
vn 0.000000 -1.000000 0.000000
vn 0.000000 -1.000000 0.000000
vn 0.000000 -1.000000 0.000000
vn 1.000000 0.000000 0.000000
vn 1.000000 0.000000 0.000000
vn 1.000000 0.000000 0.000000
vn 1.000000 0.000000 0.000000
vn -1.000000 0.000000 0.000000
vn -1.000000 0.000000 0.000000
vn -1.000000 0.000000 0.000000
vn -1.000000 0.000000 0.000000
s off
g pCube4
usemtl initialShadingGroup
f 35/46/109 36/47/110 38/49/111 37/48/112
f 37/48/113 38/49/114 40/51/115 39/50/116
f 39/50/117 40/51/118 42/53/119 41/52/120
f 41/52/121 42/53/122 36/55/123 35/54/124
f 36/47/125 42/56/126 40/57/127 38/49/128
f 41/58/129 35/46/130 37/48/131 39/59/132
