# This file uses centimeters as units for non-parametric coordinates.

mtllib TowerPointedOnly1.mtl
g default
v 2.828427 -5.000000 -2.828427
v 0.000000 -5.000000 -4.000000
v -2.828427 -5.000000 -2.828427
v -4.000000 -5.000000 0.000000
v -2.828427 -5.000000 2.828427
v 0.000000 -5.000000 4.000000
v 2.828427 -5.000000 2.828427
v 4.000000 -5.000000 0.000000
v 2.121319 4.000000 -2.121319
v -0.000000 4.000000 -3.000000
v -2.121319 4.000000 -2.121319
v -3.000000 4.000000 -0.000000
v -2.121319 4.000000 2.121319
v -0.000000 4.000000 3.000000
v 2.121320 4.000000 2.121320
v 3.000000 4.000000 -0.000000
v 0.000000 -5.000000 0.000000
v 0.000000 13.000000 0.000001
v 2.121317 6.750000 -2.121317
v 3.000004 6.750000 0.000000
v 2.121321 6.750000 2.121316
v -0.000000 6.750000 3.000003
v -2.121321 6.750000 2.121316
v -3.000004 6.750000 0.000000
v -2.121321 6.750000 -2.121317
v -0.000000 6.750000 -3.000004
v 2.121322 8.700001 -2.121321
v 3.000004 8.700001 0.000000
v 2.121321 8.700001 2.121321
v -0.000001 8.700001 3.000004
v -2.121321 8.700001 2.121321
v -3.000004 8.700001 0.000000
v -2.121321 8.700001 -2.121321
v -0.000000 8.700001 -3.000004
v 2.504003 8.700000 -2.504003
v 3.541197 8.700000 -0.000000
v 2.504003 9.000000 -2.504003
v 3.541197 9.000000 -0.000000
v 2.504003 8.700001 2.504002
v 2.504003 9.000001 2.504002
v -0.000001 8.700000 3.541196
v -0.000001 9.000000 3.541195
v -2.504003 8.700000 2.504003
v -2.504003 9.000000 2.504003
v -3.541196 8.700000 -0.000000
v -3.541196 9.000000 0.000000
v -2.504003 8.700000 -2.504002
v -2.504003 9.000000 -2.504002
v -0.000000 8.700000 -3.541196
v 0.000000 9.000000 -3.541196
v 2.312660 5.250000 -2.312660
v 0.000000 5.250000 -3.270598
v 0.000000 6.750000 -3.270602
v 2.312658 6.750000 -2.312659
v -2.312661 5.250000 -2.312660
v -2.312663 6.750000 -2.312658
v -3.270599 5.250000 -0.000000
v -3.270602 6.750000 0.000000
v -2.312661 5.250000 2.312660
v -2.312663 6.750000 2.312658
v -0.000000 5.250000 3.270598
v -0.000001 6.750000 3.270602
v 2.312662 5.250000 2.312662
v 2.312663 6.750000 2.312658
v 3.270599 5.250000 -0.000000
v 3.270602 6.750000 -0.000000
vt 0.610485 0.045765
vt 0.500000 0.000000
vt 0.389515 0.045765
vt 0.343750 0.156250
vt 0.389515 0.266735
vt 0.500000 0.312500
vt 0.610485 0.266735
vt 0.656250 0.156250
vt 0.375000 0.312500
vt 0.406250 0.312500
vt 0.437500 0.312500
vt 0.468750 0.312500
vt 0.500000 0.312500
vt 0.531250 0.312500
vt 0.562500 0.312500
vt 0.593750 0.312500
vt 0.625000 0.312500
vt 0.375000 0.687500
vt 0.406250 0.687500
vt 0.437500 0.687500
vt 0.468750 0.687500
vt 0.500000 0.687500
vt 0.531250 0.687500
vt 0.562500 0.687500
vt 0.593750 0.687500
vt 0.625000 0.687500
vt 0.500000 0.156250
vt 0.500000 0.863281
vt 0.610485 0.954235
vt 0.656250 0.843750
vt 0.610485 0.733265
vt 0.500000 0.687500
vt 0.389515 0.733265
vt 0.343750 0.843750
vt 0.389515 0.954235
vt 0.500000 1.000000
vt 0.610485 0.954235
vt 0.656250 0.843750
vt 0.610485 0.733265
vt 0.500000 0.687500
vt 0.389515 0.733265
vt 0.343750 0.843750
vt 0.389515 0.954235
vt 0.500000 1.000000
vt 0.656250 0.843750
vt 0.610485 0.954235
vt 0.610485 0.954235
vt 0.656250 0.843750
vt 0.610485 0.733265
vt 0.610485 0.733265
vt 0.500000 0.687500
vt 0.500000 0.687500
vt 0.389515 0.733265
vt 0.389515 0.733265
vt 0.343750 0.843750
vt 0.343750 0.843750
vt 0.389515 0.954235
vt 0.389515 0.954235
vt 0.500000 1.000000
vt 0.500000 1.000000
vt 0.610485 0.954235
vt 0.500000 1.000000
vt 0.500000 1.000000
vt 0.610485 0.954235
vt 0.389515 0.954235
vt 0.389515 0.954235
vt 0.343750 0.843750
vt 0.343750 0.843750
vt 0.389515 0.733265
vt 0.389515 0.733265
vt 0.500000 0.687500
vt 0.500000 0.687500
vt 0.610485 0.733265
vt 0.610485 0.733265
vt 0.656250 0.843750
vt 0.656250 0.843750
vn 0.380683 0.102117 -0.919050
vn 0.380683 0.102117 -0.919050
vn 0.380683 0.102117 -0.919050
vn 0.380683 0.102117 -0.919050
vn -0.380683 0.102117 -0.919050
vn -0.380683 0.102117 -0.919050
vn -0.380683 0.102117 -0.919050
vn -0.380683 0.102117 -0.919050
vn -0.919050 0.102117 -0.380683
vn -0.919050 0.102117 -0.380683
vn -0.919050 0.102117 -0.380683
vn -0.919050 0.102117 -0.380683
vn -0.919050 0.102117 0.380683
vn -0.919050 0.102117 0.380683
vn -0.919050 0.102117 0.380683
vn -0.919050 0.102117 0.380683
vn -0.380683 0.102117 0.919050
vn -0.380683 0.102117 0.919050
vn -0.380683 0.102117 0.919050
vn -0.380683 0.102117 0.919050
vn 0.380683 0.102117 0.919050
vn 0.380683 0.102117 0.919050
vn 0.380683 0.102117 0.919050
vn 0.380683 0.102117 0.919050
vn 0.919050 0.102117 0.380683
vn 0.919050 0.102117 0.380683
vn 0.919050 0.102117 0.380683
vn 0.919050 0.102117 0.380683
vn 0.919050 0.102117 -0.380683
vn 0.919050 0.102117 -0.380683
vn 0.919050 0.102117 -0.380683
vn 0.919050 0.102117 -0.380683
vn 0.000000 -1.000000 0.000000
vn 0.000000 -1.000000 0.000000
vn 0.000000 -1.000000 0.000000
vn 0.000000 -1.000000 0.000000
vn 0.000000 -1.000000 0.000000
vn 0.000000 -1.000000 0.000000
vn 0.000000 -1.000000 0.000000
vn 0.000000 -1.000000 0.000000
vn 0.000000 -1.000000 0.000000
vn 0.382685 -0.000001 -0.923879
vn 0.382685 -0.000001 -0.923879
vn 0.382685 -0.000001 -0.923879
vn 0.382685 -0.000001 -0.923879
vn -0.382685 -0.000001 -0.923879
vn -0.382685 -0.000001 -0.923879
vn -0.382685 -0.000001 -0.923879
vn -0.382685 -0.000001 -0.923879
vn -0.923879 -0.000001 -0.382685
vn -0.923879 -0.000001 -0.382685
vn -0.923879 -0.000001 -0.382685
vn -0.923879 -0.000001 -0.382685
vn -0.923879 -0.000001 0.382685
vn -0.923879 -0.000001 0.382685
vn -0.923879 -0.000001 0.382685
vn -0.923879 -0.000001 0.382685
vn -0.382685 -0.000001 0.923879
vn -0.382685 -0.000001 0.923879
vn -0.382685 -0.000001 0.923879
vn -0.382685 -0.000001 0.923879
vn 0.382684 -0.000000 0.923879
vn 0.382684 -0.000000 0.923879
vn 0.382685 -0.000000 0.923879
vn 0.382684 -0.000000 0.923879
vn 0.923879 -0.000001 0.382684
vn 0.923879 -0.000001 0.382685
vn 0.923879 -0.000001 0.382685
vn 0.923879 -0.000001 0.382684
vn 0.923879 -0.000000 -0.382686
vn 0.923879 -0.000000 -0.382686
vn 0.923879 -0.000000 -0.382686
vn 0.923879 -0.000000 -0.382686
vn -0.000000 1.000000 0.000000
vn 0.529441 0.662861 -0.529441
vn -0.000000 0.662861 -0.748742
vn -0.529441 0.662861 -0.529441
vn -0.748742 0.662861 0.000000
vn -0.529441 0.662861 0.529441
vn -0.000000 0.662861 0.748743
vn 0.529441 0.662861 0.529441
vn 0.748743 0.662861 -0.000000
vn 0.923879 -0.000002 -0.382686
vn 0.923879 -0.000002 -0.382685
vn 0.923879 -0.000002 -0.382686
vn 0.923879 -0.000002 -0.382686
vn 0.923879 -0.000000 0.382685
vn 0.923879 -0.000000 0.382685
vn 0.923879 -0.000000 0.382685
vn 0.923879 -0.000000 0.382685
vn 0.382685 -0.000001 0.923879
vn 0.382685 -0.000001 0.923879
vn 0.382685 -0.000001 0.923879
vn 0.382685 -0.000001 0.923879
vn -0.382685 -0.000001 0.923879
vn -0.382685 -0.000001 0.923879
vn -0.382685 -0.000001 0.923879
vn -0.382685 -0.000001 0.923879
vn -0.923879 -0.000000 0.382685
vn -0.923879 -0.000000 0.382685
vn -0.923879 -0.000000 0.382685
vn -0.923879 -0.000000 0.382685
vn -0.923879 -0.000000 -0.382685
vn -0.923879 -0.000000 -0.382685
vn -0.923879 -0.000000 -0.382685
vn -0.923879 -0.000000 -0.382685
vn -0.382685 -0.000001 -0.923879
vn -0.382685 -0.000001 -0.923879
vn -0.382685 -0.000001 -0.923879
vn -0.382685 -0.000001 -0.923879
vn 0.382686 -0.000002 -0.923879
vn 0.382686 -0.000002 -0.923879
vn 0.382686 -0.000002 -0.923879
vn 0.382686 -0.000002 -0.923879
vn 0.923879 0.000000 -0.382684
vn 0.923879 0.000000 -0.382684
vn 0.923879 0.000000 -0.382684
vn 0.923879 0.000000 -0.382684
vn 0.923880 0.000000 0.382683
vn 0.923880 0.000000 0.382683
vn 0.923880 0.000000 0.382683
vn 0.923880 0.000000 0.382683
vn 0.382684 0.000001 0.923879
vn 0.382684 0.000001 0.923879
vn 0.382684 0.000001 0.923879
vn 0.382684 0.000001 0.923879
vn -0.382685 0.000000 0.923879
vn -0.382685 0.000000 0.923879
vn -0.382685 0.000000 0.923879
vn -0.382685 0.000000 0.923879
vn -0.923879 -0.000000 0.382684
vn -0.923879 -0.000000 0.382684
vn -0.923879 -0.000000 0.382684
vn -0.923879 -0.000000 0.382684
vn -0.923879 0.000000 -0.382684
vn -0.923879 0.000000 -0.382684
vn -0.923879 0.000000 -0.382684
vn -0.923879 0.000000 -0.382684
vn -0.382684 0.000000 -0.923879
vn -0.382684 0.000000 -0.923879
vn -0.382684 0.000000 -0.923879
vn -0.382684 0.000000 -0.923879
vn 0.382684 0.000000 -0.923879
vn 0.382684 0.000000 -0.923879
vn 0.382684 0.000000 -0.923879
vn 0.382684 0.000000 -0.923879
vn -0.000001 -1.000000 0.000001
vn -0.000001 -1.000000 0.000001
vn -0.000001 -1.000000 0.000001
vn -0.000001 -1.000000 0.000001
vn -0.000001 -1.000000 0.000000
vn -0.000001 -1.000000 0.000000
vn 0.000000 -1.000000 -0.000001
vn 0.000000 -1.000000 -0.000001
vn 0.000001 -1.000000 -0.000001
vn 0.000001 -1.000000 -0.000001
vn 0.000002 -1.000000 0.000000
vn 0.000002 -1.000000 0.000000
vn 0.000001 -1.000000 0.000002
vn 0.000001 -1.000000 0.000002
vn 0.000000 -1.000000 0.000002
vn 0.000000 -1.000000 0.000002
vn -0.000000 1.000000 -0.000001
vn 0.000000 1.000000 -0.000001
vn 0.000000 1.000000 -0.000001
vn -0.000000 1.000000 -0.000001
vn -0.000001 1.000000 -0.000001
vn -0.000001 1.000000 -0.000001
vn -0.000002 1.000000 0.000000
vn -0.000002 1.000000 0.000000
vn -0.000001 1.000000 0.000001
vn -0.000001 1.000000 0.000001
vn -0.000000 1.000000 -0.000000
vn -0.000000 1.000000 -0.000000
vn 0.000000 1.000000 -0.000001
vn 0.000000 1.000000 -0.000001
vn 0.000000 1.000000 0.000000
vn 0.000000 1.000000 0.000000
vn -0.375252 -0.196115 -0.905938
vn -0.375252 -0.196115 -0.905938
vn -0.375252 -0.196115 -0.905938
vn -0.375252 -0.196115 -0.905938
vn -0.905938 -0.196116 -0.375253
vn -0.905938 -0.196116 -0.375253
vn -0.905938 -0.196116 -0.375253
vn -0.905938 -0.196116 -0.375253
vn -0.905938 -0.196116 0.375253
vn -0.905938 -0.196116 0.375253
vn -0.905938 -0.196116 0.375253
vn -0.905938 -0.196116 0.375253
vn -0.375253 -0.196116 0.905938
vn -0.375253 -0.196116 0.905938
vn -0.375253 -0.196116 0.905938
vn -0.375253 -0.196116 0.905938
vn 0.375252 -0.196116 0.905939
vn 0.375252 -0.196116 0.905939
vn 0.375252 -0.196116 0.905939
vn 0.375252 -0.196116 0.905939
vn 0.905938 -0.196116 0.375252
vn 0.905938 -0.196116 0.375252
vn 0.905938 -0.196116 0.375252
vn 0.905938 -0.196116 0.375252
vn 0.905938 -0.196116 -0.375253
vn 0.905938 -0.196116 -0.375253
vn 0.905938 -0.196116 -0.375253
vn 0.905938 -0.196116 -0.375253
vn 0.375253 -0.196115 -0.905938
vn 0.375253 -0.196115 -0.905938
vn 0.375253 -0.196115 -0.905938
vn 0.375253 -0.196115 -0.905938
s off
g pCylinder2
usemtl initialShadingGroup
f 1/9/1 2/10/2 10/19/3 9/18/4
f 2/10/5 3/11/6 11/20/7 10/19/8
f 3/11/9 4/12/10 12/21/11 11/20/12
f 4/12/13 5/13/14 13/22/15 12/21/16
f 5/13/17 6/14/18 14/23/19 13/22/20
f 6/14/21 7/15/22 15/24/23 14/23/24
f 7/15/25 8/16/26 16/25/27 15/24/28
f 8/16/29 1/17/30 9/26/31 16/25/32
s 1
f 2/2/33 1/1/34 17/27/35
f 3/3/36 2/2/33 17/27/35
f 4/4/37 3/3/36 17/27/35
f 5/5/38 4/4/37 17/27/35
f 6/6/39 5/5/38 17/27/35
f 7/7/40 6/6/39 17/27/35
f 8/8/41 7/7/40 17/27/35
f 1/1/34 8/8/41 17/27/35
s off
f 51/61/42 52/62/43 53/63/44 54/64/45
f 52/62/46 55/65/47 56/66/48 53/63/49
f 55/65/50 57/67/51 58/68/52 56/66/53
f 57/67/54 59/69/55 60/70/56 58/68/57
f 59/69/58 61/71/59 62/72/60 60/70/61
f 61/71/62 63/73/63 64/74/64 62/72/65
f 63/73/66 65/75/67 66/76/68 64/74/69
f 65/75/70 51/61/71 54/64/72 66/76/73
s 2
f 18/28/74 37/47/75 50/60/76
f 18/28/74 50/60/76 48/58/77
f 18/28/74 48/58/77 46/56/78
f 18/28/74 46/56/78 44/54/79
f 18/28/74 44/54/79 42/52/80
f 18/28/74 42/52/80 40/50/81
f 18/28/74 40/50/81 38/48/82
f 18/28/74 38/48/82 37/47/75
s off
f 20/30/83 19/29/84 27/37/85 28/38/86
f 21/31/87 20/30/88 28/38/89 29/39/90
f 22/32/91 21/31/92 29/39/93 30/40/94
f 23/33/95 22/32/96 30/40/97 31/41/98
f 24/34/99 23/33/100 31/41/101 32/42/102
f 25/35/103 24/34/104 32/42/105 33/43/106
f 26/36/107 25/35/108 33/43/109 34/44/110
f 19/29/111 26/36/112 34/44/113 27/37/114
f 36/45/115 35/46/116 37/47/117 38/48/118
f 39/49/119 36/45/120 38/48/121 40/50/122
f 41/51/123 39/49/124 40/50/125 42/52/126
f 43/53/127 41/51/128 42/52/129 44/54/130
f 45/55/131 43/53/132 44/54/133 46/56/134
f 47/57/135 45/55/136 46/56/137 48/58/138
f 49/59/139 47/57/140 48/58/141 50/60/142
f 35/46/143 49/59/144 50/60/145 37/47/146
s 3
f 28/38/147 27/37/148 35/46/149 36/45/150
f 29/39/151 28/38/147 36/45/150 39/49/152
f 30/40/153 29/39/151 39/49/152 41/51/154
f 31/41/155 30/40/153 41/51/154 43/53/156
f 32/42/157 31/41/155 43/53/156 45/55/158
f 33/43/159 32/42/157 45/55/158 47/57/160
f 34/44/161 33/43/159 47/57/160 49/59/162
f 27/37/148 34/44/161 49/59/162 35/46/149
s 4
f 26/36/163 19/29/164 54/64/165 53/63/166
f 25/35/167 26/36/163 53/63/166 56/66/168
f 24/34/169 25/35/167 56/66/168 58/68/170
f 23/33/171 24/34/169 58/68/170 60/70/172
f 22/32/173 23/33/171 60/70/172 62/72/174
f 21/31/175 22/32/173 62/72/174 64/74/176
f 20/30/177 21/31/175 64/74/176 66/76/178
f 19/29/164 20/30/177 66/76/178 54/64/165
s off
f 10/19/179 11/20/180 55/65/181 52/62/182
f 11/20/183 12/21/184 57/67/185 55/65/186
f 12/21/187 13/22/188 59/69/189 57/67/190
f 13/22/191 14/23/192 61/71/193 59/69/194
f 14/23/195 15/24/196 63/73/197 61/71/198
f 15/24/199 16/25/200 65/75/201 63/73/202
f 16/25/203 9/26/204 51/61/205 65/75/206
f 9/18/207 10/19/208 52/62/209 51/61/210
