# This file uses centimeters as units for non-parametric coordinates.

mtllib HouseSolo4.mtl
g default
v -3.000000 -5.000000 4.000000
v 3.000000 -5.000000 4.000000
v -3.000000 -1.500000 4.000000
v 3.000000 -1.500000 4.000000
v -3.000000 -1.500000 -4.000000
v 3.000000 -1.500000 -4.000000
v -3.000000 -5.000000 -4.000000
v 3.000000 -5.000000 -4.000000
v 0.000000 -5.000000 4.000000
v 0.000000 0.000000 4.000000
v 0.000000 0.000000 -4.000000
v 0.000000 -5.000000 -4.000000
v -3.000000 -2.000000 4.000000
v -3.000000 -2.000000 -4.000000
v 0.000000 -0.500000 -4.000000
v 3.000000 -2.000000 -4.000000
v 3.000000 -2.000000 4.000000
v 0.000000 -0.500000 4.000000
v -3.500000 -2.250000 4.000000
v -3.500000 -2.250000 -4.000000
v -3.500000 -1.750000 4.000000
v -3.500000 -1.750000 -4.000000
v 3.500000 -2.250000 -4.000000
v 3.500000 -2.250000 4.000000
v 3.500000 -1.750000 -4.000000
v 3.500000 -1.750000 4.000000
v -3.000000 -1.500000 -4.500000
v 0.000000 0.000000 -4.500000
v 0.000000 -0.500000 -4.500000
v -3.000000 -2.000000 -4.500000
v 3.000000 -2.000000 -4.500000
v 3.000000 -1.500000 -4.500000
v -3.500000 -2.250000 -4.500000
v -3.500000 -1.750000 -4.500000
v 3.500000 -1.750000 -4.500000
v 3.500000 -2.250000 -4.500000
v 0.000000 -0.500000 4.500000
v 0.000000 0.000000 4.500000
v 3.000000 -2.000000 4.500000
v 3.000000 -1.500000 4.500000
v -3.000000 -2.000000 4.500000
v -3.000000 -1.500000 4.500000
v -3.500000 -1.750000 4.500000
v -3.500000 -2.250000 4.500000
v 3.500000 -2.250000 4.500000
v 3.500000 -1.750000 4.500000
v -3.000000 -1.500000 0.500000
v -3.500000 -1.750000 0.500000
v -3.500000 -2.250000 0.500000
v -3.000000 -2.000000 0.500000
v -3.000000 -5.000000 0.500000
v 0.000000 -5.000000 0.500000
v 3.000000 -5.000000 0.500000
v 3.000000 -2.000000 0.500000
v 3.500000 -2.250000 0.500000
v 3.500000 -1.750000 0.500000
v 3.000000 -1.500000 0.500000
v 0.000000 0.000000 0.500000
v -3.000000 -5.000000 -0.500000
v -3.000000 -2.000000 -0.500000
v -3.500000 -2.250000 -0.500000
v -3.500000 -1.750000 -0.500000
v -3.000000 -1.500000 -0.500000
v 0.000000 0.000000 -0.500000
v 3.000000 -1.500000 -0.500000
v 3.500000 -1.750000 -0.500000
v 3.500000 -2.250000 -0.500000
v 3.000000 -2.000000 -0.500000
v 3.000000 -5.000000 -0.500000
v 0.000000 -5.000000 -0.500000
v -3.000000 -3.000000 4.000000
v -3.000000 -3.000000 0.500000
v -3.000000 -3.000000 -0.500000
v -3.000000 -3.000000 -4.000000
v 0.000000 -3.000000 -4.000000
v 3.000000 -3.000000 -4.000000
v 3.000000 -3.000000 -0.500000
v 3.000000 -3.000000 0.500000
v 3.000000 -3.000000 4.000000
v 0.000000 -3.000000 4.000000
v -2.500000 -5.000000 -0.500000
v -2.500000 -5.000000 0.500000
v -2.500000 -3.000000 0.500000
v -2.500000 -3.000000 -0.500000
v 0.000000 0.000000 0.999999
v 3.000000 -1.500000 0.999999
v 1.000002 -0.500000 1.000000
v 2.500002 -1.250000 1.000000
v 3.000000 -1.500000 2.500000
v 0.000000 0.000000 2.500000
v 2.500002 -1.250000 2.500000
v 1.000002 -0.500000 2.500000
v 2.499999 -1.249999 0.500000
v 1.000000 -0.500000 0.500000
v 0.999999 -0.500000 4.000000
v 2.499999 -1.249999 4.000000
vt 0.375000 0.000000
vt 0.625000 0.000000
vt 0.375000 0.250000
vt 0.625000 0.250000
vt 0.375000 0.500000
vt 0.625000 0.500000
vt 0.375000 0.750000
vt 0.625000 0.750000
vt 0.375000 1.000000
vt 0.625000 1.000000
vt 0.875000 0.000000
vt 0.875000 0.250000
vt 0.125000 0.000000
vt 0.125000 0.250000
vt 0.500000 0.000000
vt 0.500000 1.000000
vt 0.500000 0.250000
vt 0.500000 0.500000
vt 0.500000 0.750000
vt 0.375000 0.200000
vt 0.125000 0.200000
vt 0.375000 0.550000
vt 0.500000 0.550000
vt 0.625000 0.550000
vt 0.875000 0.200000
vt 0.625000 0.200000
vt 0.500000 0.200000
vt 0.125000 0.200000
vt 0.375000 0.200000
vt 0.375000 0.250000
vt 0.125000 0.250000
vt 0.625000 0.200000
vt 0.875000 0.200000
vt 0.875000 0.250000
vt 0.625000 0.250000
vt 0.375000 0.500000
vt 0.500000 0.500000
vt 0.500000 0.550000
vt 0.375000 0.550000
vt 0.625000 0.550000
vt 0.625000 0.500000
vt 0.500000 0.200000
vt 0.625000 0.200000
vt 0.625000 0.250000
vt 0.500000 0.250000
vt 0.375000 0.200000
vt 0.375000 0.250000
vt 0.375000 0.250000
vt 0.375000 0.200000
vt 0.125000 0.200000
vt 0.125000 0.200000
vt 0.125000 0.250000
vt 0.125000 0.250000
vt 0.875000 0.250000
vt 0.875000 0.250000
vt 0.875000 0.200000
vt 0.875000 0.200000
vt 0.625000 0.200000
vt 0.625000 0.250000
vt 0.275000 0.250000
vt 0.375000 0.350000
vt 0.275000 0.250000
vt 0.275000 0.200000
vt 0.275000 0.200000
vt 0.325000 0.450000
vt 0.500000 0.900000
vt 0.625000 0.900000
vt 0.725000 0.000000
vt 0.725000 0.200000
vt 0.725000 0.200000
vt 0.725000 0.250000
vt 0.625000 0.350000
vt 0.725000 0.250000
vt 0.500000 0.350000
vt 0.302500 0.427500
vt 0.230000 0.200000
vt 0.230000 0.200000
vt 0.230000 0.250000
vt 0.230000 0.250000
vt 0.375000 0.395000
vt 0.500000 0.395000
vt 0.625000 0.395000
vt 0.770000 0.250000
vt 0.770000 0.250000
vt 0.770000 0.200000
vt 0.770000 0.200000
vt 0.625000 0.855000
vt 0.770000 0.000000
vt 0.500000 0.855000
vt 0.375000 0.140000
vt 0.137500 0.070000
vt 0.615000 0.070000
vt 0.125000 0.140000
vt 0.375000 0.610000
vt 0.500000 0.610000
vt 0.625000 0.610000
vt 0.875000 0.140000
vt 0.770000 0.140000
vt 0.725000 0.140000
vt 0.625000 0.140000
vt 0.500000 0.140000
vt 0.437500 0.855000
vt 0.437500 0.900000
vt 1.000000 1.000000
vt 0.000000 1.000000
vt 0.500000 0.335714
vt 0.625000 0.335714
vt 0.710714 0.250000
vt 0.541667 0.335714
vt 0.604167 0.335714
vt 0.625000 0.292857
vt 0.667857 0.250000
vt 0.500000 0.292857
vt 0.604167 0.292857
vt 0.541667 0.292857
vt 0.604167 0.350000
vt 0.541667 0.350000
vt 0.541667 0.250000
vt 0.125000 0.200000
vt 0.604167 0.250000
vt 0.125000 0.200000
vn 0.000000 0.000000 1.000000
vn 0.000000 0.000000 1.000000
vn 0.000000 0.000000 1.000000
vn 0.000000 0.000000 1.000000
vn -0.447214 0.894427 0.000000
vn -0.287348 0.957826 0.000000
vn -0.351123 0.936329 0.000000
vn -0.381760 0.924261 -0.000000
vn -0.282166 0.959366 -0.000000
vn -0.447214 0.894427 0.000000
vn 0.000000 0.000000 -1.000000
vn 0.000000 0.000000 -1.000000
vn 0.000000 0.000000 -1.000000
vn 0.000000 0.000000 -1.000000
vn 0.000000 -1.000000 0.000000
vn 0.000000 -1.000000 0.000000
vn 0.000000 -1.000000 0.000000
vn 0.000000 -1.000000 0.000000
vn 0.000000 -1.000000 0.000000
vn 1.000000 0.000000 0.000000
vn 1.000000 0.000000 0.000000
vn 1.000000 0.000000 0.000000
vn 1.000000 0.000000 0.000000
vn -1.000000 0.000000 0.000000
vn -1.000000 0.000000 0.000000
vn -1.000000 0.000000 0.000000
vn -1.000000 0.000000 0.000000
vn -0.000000 0.000000 1.000000
vn 0.000000 0.000000 1.000000
vn 0.447214 0.894427 -0.000000
vn 0.447214 0.894427 -0.000000
vn 0.447214 0.894427 -0.000000
vn 0.447213 0.894427 -0.000000
vn -0.000000 0.000000 -1.000000
vn 0.000000 0.000000 -1.000000
vn 0.000000 -1.000000 0.000000
vn 0.000000 -1.000000 0.000000
vn -1.000000 0.000000 0.000000
vn -1.000000 0.000000 0.000000
vn -1.000000 0.000000 0.000000
vn -1.000000 0.000000 0.000000
vn -0.000000 0.000000 -1.000000
vn -0.000000 0.000000 -1.000000
vn -0.000000 0.000000 -1.000000
vn -0.000000 0.000000 -1.000000
vn -0.000000 0.000000 -1.000000
vn -0.000000 0.000000 -1.000000
vn 1.000000 0.000000 0.000000
vn 1.000000 0.000000 0.000000
vn 1.000000 0.000000 0.000000
vn 1.000000 0.000000 0.000000
vn 0.000000 0.000000 1.000000
vn 0.000000 0.000000 1.000000
vn 0.000000 0.000000 1.000000
vn 0.000000 0.000000 1.000000
vn 0.000000 0.000000 1.000000
vn 0.000000 0.000000 1.000000
vn 0.447214 -0.894427 0.000000
vn 0.447214 -0.894427 0.000000
vn 0.447214 -0.894427 0.000000
vn 0.447214 -0.894427 0.000000
vn 0.000000 0.000000 1.000000
vn 0.000000 0.000000 1.000000
vn -0.447214 0.894427 0.000000
vn -0.447214 0.894427 0.000000
vn -0.000001 0.000000 -1.000000
vn -0.000001 0.000000 -1.000000
vn -0.447214 -0.894427 0.000000
vn -0.447214 -0.894427 0.000000
vn -0.447214 -0.894427 0.000000
vn -0.447214 -0.894427 0.000000
vn 0.000000 0.000000 -1.000000
vn 0.000000 0.000000 -1.000000
vn 0.447214 0.894427 0.000000
vn 0.447214 0.894427 0.000000
vn 0.447214 0.894427 -0.000000
vn 0.447214 0.894427 0.000000
vn 0.447214 0.894427 -0.000000
vn 0.447214 0.894427 0.000000
vn 0.000001 0.000000 1.000000
vn 0.000001 0.000000 1.000000
vn -0.447214 0.894427 0.000000
vn 0.000000 1.000000 0.000000
vn -0.447214 0.894427 0.000000
vn -0.447214 0.894427 0.000000
vn 0.447214 -0.894427 0.000000
vn 0.447214 -0.894427 0.000000
vn 0.447214 -0.894427 0.000000
vn 0.447214 -0.894427 0.000000
vn -0.447214 -0.894427 0.000000
vn -0.447214 -0.894427 0.000000
vn -0.447214 -0.894427 0.000000
vn -0.447214 -0.894427 0.000000
vn 0.447214 0.894427 0.000000
vn 0.447214 0.894427 0.000000
vn 0.447214 0.894427 0.000000
vn 0.447214 -0.894427 0.000000
vn 0.447213 -0.894427 0.000000
vn -1.000000 0.000000 0.000000
vn -1.000000 0.000000 0.000000
vn -1.000000 0.000000 0.000000
vn -1.000000 0.000000 0.000000
vn -0.447214 0.894427 0.000000
vn -0.447213 0.894427 0.000000
vn 0.447214 0.894427 0.000000
vn 0.447213 0.894427 0.000000
vn 1.000000 0.000000 0.000000
vn 1.000000 0.000000 0.000000
vn 1.000000 0.000000 0.000000
vn 1.000000 0.000000 0.000000
vn -0.447214 -0.894427 0.000000
vn -0.447213 -0.894427 0.000000
vn -0.447214 -0.894427 0.000000
vn -0.447214 -0.894427 0.000000
vn -0.447214 -0.894427 0.000000
vn 0.447214 0.894427 0.000000
vn 0.447214 0.894427 0.000000
vn 0.447214 0.894427 -0.000000
vn 0.447214 0.894427 -0.000000
vn 0.447214 -0.894427 0.000000
vn 0.447214 -0.894427 0.000000
vn 0.447214 -0.894427 0.000000
vn -0.447214 0.894427 0.000000
vn -0.447214 0.894427 0.000000
vn -0.447213 0.894427 0.000000
vn -1.000000 0.000000 0.000000
vn -1.000000 0.000000 0.000000
vn 0.447213 -0.894427 0.000000
vn -0.447213 -0.894427 0.000000
vn 1.000000 0.000000 0.000000
vn 1.000000 0.000000 0.000000
vn 0.447213 0.894427 0.000000
vn -0.447214 0.894427 0.000000
vn -0.447214 0.894427 0.000000
vn -1.000000 0.000000 0.000000
vn -1.000000 0.000000 0.000000
vn 0.447214 -0.894427 0.000000
vn 0.447214 -0.894427 0.000000
vn -1.000000 0.000000 0.000000
vn -1.000000 0.000000 0.000000
vn -1.000000 0.000000 0.000000
vn -1.000000 0.000000 0.000000
vn 0.000000 -1.000000 0.000000
vn 0.000000 -1.000000 0.000000
vn 0.000000 -1.000000 0.000000
vn 0.000000 -1.000000 0.000000
vn 0.000000 -1.000000 0.000000
vn 0.000000 -1.000000 0.000000
vn 0.000000 -1.000000 0.000000
vn 1.000000 0.000000 0.000000
vn 1.000000 0.000000 0.000000
vn 1.000000 0.000000 0.000000
vn 1.000000 0.000000 0.000000
vn -0.447214 -0.894427 0.000000
vn -0.447214 -0.894427 0.000000
vn 1.000000 0.000000 0.000000
vn 1.000000 0.000000 0.000000
vn 0.447214 0.894427 0.000000
vn 0.447214 0.894427 0.000000
vn 0.000000 1.000000 0.000000
vn -1.000000 0.000000 0.000000
vn -1.000000 0.000000 0.000000
vn -1.000000 0.000000 0.000000
vn -1.000000 0.000000 0.000000
vn 0.000000 0.000000 -1.000000
vn 0.000000 0.000000 -1.000000
vn -0.000000 0.000000 -1.000000
vn 1.000000 0.000000 0.000000
vn 1.000000 0.000000 0.000000
vn 1.000000 0.000000 0.000000
vn 1.000000 0.000000 0.000000
vn -0.000000 0.000000 1.000000
vn 0.000000 0.000000 1.000000
vn 0.000000 0.000000 1.000000
vn 0.000000 -1.000000 0.000000
vn 0.000000 -1.000000 0.000000
vn 0.000000 -1.000000 0.000000
vn 0.000000 -1.000000 0.000000
vn -1.000000 0.000000 0.000000
vn -1.000000 0.000000 0.000000
vn -1.000000 0.000000 0.000000
vn -1.000000 0.000000 0.000000
vn 0.000000 0.000000 1.000000
vn 0.000000 0.000000 1.000000
vn 0.000000 0.000000 1.000000
vn 0.000000 0.000000 1.000000
vn 0.000000 -0.000000 -1.000000
vn 0.000000 -0.000000 -1.000000
vn 0.000000 -0.000000 -1.000000
vn 0.000000 -0.000000 -1.000000
vn 0.447214 0.894427 0.000000
vn 0.447213 0.894427 0.000000
s 1
g pCube2
usemtl initialShadingGroup
f 1/1/1 9/15/2 80/101/3 71/90/4
s 2
f 3/3/5 10/17/6 90/113/7 85/106/8 58/74/9 47/61/10
s 3
f 74/94/11 75/95/12 12/19/13 7/7/14
s 4
f 51/65/15 82/103/16 52/66/17 9/16/18 1/9/19
s 5
f 2/2/20 53/68/21 78/99/22 79/100/23
s 6
f 71/90/24 72/91/25 51/65/26 1/1/27
s 1
f 79/100/28 80/101/3 9/15/2 2/2/29
s 2
f 88/110/30 93/116/31 94/117/32 87/109/33
s 3
f 12/19/13 75/95/12 76/96/34 8/8/35
s 4
f 9/16/18 52/66/17 53/67/36 2/10/37
s 8
f 48/62/38 49/63/39 19/29/40 21/30/41
s 9
f 27/36/42 28/37/43 29/38/44 30/39/45
f 31/40/46 29/38/44 28/37/43 32/41/47
s 10
f 24/32/48 55/70/49 56/71/50 26/35/51
s 11
f 38/45/52 37/42/53 39/43/54 40/44/55
f 41/46/56 37/42/53 38/45/52 42/47/57
s 12
f 49/63/58 50/64/59 13/20/60 19/29/61
s 11
f 41/46/56 42/47/57 43/48/62 44/49/63
s 2
f 3/3/5 47/60/10 48/62/64 21/30/65
s 9
f 27/53/42 30/50/45 33/51/66 34/52/67
s 13
f 17/26/68 54/69/69 55/70/70 24/32/71
s 9
f 31/57/46 32/54/47 35/55/72 36/56/73
s 2
f 56/71/74 57/73/75 86/108/76 89/112/77 4/4/78 26/35/79
s 11
f 40/44/55 39/43/54 45/58/80 46/59/81
s 2
f 5/5/82 11/18/83 28/37/84 27/36/85
s 12
f 15/23/86 14/22/87 30/39/88 29/38/89
s 13
f 16/24/90 15/23/91 29/38/92 31/40/93
s 2
f 11/18/83 6/6/94 32/41/95 28/37/96
s 12
f 14/27/87 20/26/97 33/43/98 30/42/88
s 8
f 20/4/99 22/17/100 34/45/101 33/44/102
s 2
f 22/20/103 5/27/82 27/42/85 34/46/104
f 6/17/94 25/3/105 35/47/106 32/45/95
s 10
f 25/3/107 23/30/108 36/48/109 35/47/110
s 13
f 23/30/111 16/29/90 31/49/93 36/48/112
f 18/29/113 17/20/68 39/46/114 37/49/115
s 2
f 4/21/78 96/121/116 95/119/117 10/28/6 38/51/118 40/50/119
s 12
f 13/28/60 18/31/120 37/52/121 41/51/122
s 2
f 10/31/6 3/14/5 42/53/123 38/52/124
f 3/12/5 21/34/65 43/55/125 42/54/123
s 8
f 21/34/41 19/33/40 44/56/126 43/55/127
s 12
f 19/33/61 13/25/60 41/57/122 44/56/128
s 13
f 17/26/68 24/32/71 45/58/129 39/43/114
s 10
f 24/32/48 26/35/51 46/59/130 45/58/131
s 2
f 26/35/79 4/4/78 40/44/119 46/59/132
f 62/78/133 63/79/134 5/14/82 22/31/103
s 8
f 20/28/99 61/77/135 62/78/136 22/31/100
s 12
f 14/21/87 60/76/137 61/77/138 20/28/97
s 6
f 7/13/139 59/75/140 73/92/141 74/93/142
s 4
f 7/7/143 12/19/144 70/89/145 81/102/146 59/75/147
f 69/87/148 70/89/145 12/19/144 8/8/149
s 5
f 76/97/150 77/98/151 69/88/152 8/11/153
s 13
f 67/85/154 68/86/155 16/25/90 23/33/111
s 10
f 66/84/156 67/85/157 23/33/108 25/34/107
s 2
f 6/12/94 65/83/158 66/84/159 25/34/105
f 11/18/83 64/81/160 65/82/158 6/6/94
f 63/80/134 64/81/160 11/18/83 5/5/82
s 12
f 61/77/138 60/76/137 50/64/59 49/63/58
s 8
f 62/78/136 61/77/135 49/63/39 48/62/38
s 2
f 48/62/64 47/60/10 63/79/134 62/78/133
f 47/61/10 58/74/9 64/81/160 63/80/134
f 65/82/158 64/81/160 58/74/9 94/117/32 93/116/31 57/72/75
f 66/84/159 65/83/158 57/73/75 56/71/74
s 10
f 56/71/50 55/70/49 67/85/157 66/84/156
s 13
f 55/70/70 54/69/69 68/86/155 67/85/154
s 5
f 77/98/151 78/99/22 53/68/21 69/88/152
s 4
f 53/67/36 52/66/17 70/89/145 69/87/148
s 6
f 50/64/161 72/91/25 71/90/24 13/20/162
f 60/76/163 73/92/141 72/91/25 50/64/161
f 74/93/142 73/92/141 60/76/163 14/21/164
s 3
f 14/22/165 15/23/166 75/95/12 74/94/11
f 76/96/34 75/95/12 15/23/166 16/24/167
s 5
f 68/86/168 77/98/151 76/97/150 16/25/169
f 54/69/170 78/99/22 77/98/151 68/86/168
f 79/100/23 78/99/22 54/69/170 17/26/171
s 1
f 17/26/172 18/27/173 80/101/3 79/100/28
f 71/90/4 80/101/3 18/27/173 13/20/174
s 4
f 82/103/16 81/102/146 70/89/145 52/66/17
s off
f 72/91/175 73/92/176 84/104/177 83/105/178
f 81/102/179 82/103/180 83/105/181 84/104/182
f 59/75/183 81/102/184 84/104/185 73/92/186
f 82/103/187 51/65/188 72/91/189 83/105/190
s 2
f 96/120/116 91/114/191 92/115/192 95/118/117
f 91/114/191 88/110/30 87/109/33 92/115/192
f 92/115/192 87/109/33 85/106/8 90/113/7
f 86/107/76 88/110/30 91/114/191 89/111/77
f 57/72/75 93/116/31 88/110/30 86/107/76
f 87/109/33 94/117/32 58/74/9 85/106/8
f 95/118/117 92/115/192 90/113/7 10/17/6
f 89/111/77 91/114/191 96/120/116 4/4/78
g default
v -2.937500 -5.000000 0.500000
v -2.562500 -5.000000 0.500000
v -2.937500 -3.000000 0.500000
v -2.562500 -3.000000 0.500000
v -2.937500 -3.000000 -0.500000
v -2.562500 -3.000000 -0.500000
v -2.937500 -5.000000 -0.500000
v -2.562500 -5.000000 -0.500000
vt 0.375000 0.000000
vt 0.625000 0.000000
vt 0.375000 0.250000
vt 0.625000 0.250000
vt 0.375000 0.500000
vt 0.625000 0.500000
vt 0.375000 0.750000
vt 0.625000 0.750000
vt 0.375000 1.000000
vt 0.625000 1.000000
vt 0.875000 0.000000
vt 0.875000 0.250000
vt 0.125000 0.000000
vt 0.125000 0.250000
vn 0.000000 0.000000 1.000000
vn 0.000000 0.000000 1.000000
vn 0.000000 0.000000 1.000000
vn 0.000000 0.000000 1.000000
vn 0.000000 1.000000 0.000000
vn 0.000000 1.000000 0.000000
vn 0.000000 1.000000 0.000000
vn 0.000000 1.000000 0.000000
vn 0.000000 0.000000 -1.000000
vn 0.000000 0.000000 -1.000000
vn 0.000000 0.000000 -1.000000
vn 0.000000 0.000000 -1.000000
vn 0.000000 -1.000000 0.000000
vn 0.000000 -1.000000 0.000000
vn 0.000000 -1.000000 0.000000
vn 0.000000 -1.000000 0.000000
vn 1.000000 0.000000 0.000000
vn 1.000000 0.000000 0.000000
vn 1.000000 0.000000 0.000000
vn 1.000000 0.000000 0.000000
vn -1.000000 0.000000 0.000000
vn -1.000000 0.000000 0.000000
vn -1.000000 0.000000 0.000000
vn -1.000000 0.000000 0.000000
s off
g pCube3
usemtl initialShadingGroup
f 97/122/193 98/123/194 100/125/195 99/124/196
f 99/124/197 100/125/198 102/127/199 101/126/200
f 101/126/201 102/127/202 104/129/203 103/128/204
f 103/128/205 104/129/206 98/131/207 97/130/208
f 98/123/209 104/132/210 102/133/211 100/125/212
f 103/134/213 97/122/214 99/124/215 101/135/216
g default
v 1.000000 -2.000000 2.500000
v 2.500000 -2.000000 2.500000
v 1.000000 1.000000 2.500000
v 2.500000 1.000000 2.500000
v 1.000000 1.000000 1.000000
v 2.500000 1.000000 1.000000
v 1.000000 -2.000000 1.000000
v 2.500000 -2.000000 1.000000
vt 0.375000 0.000000
vt 0.625000 0.000000
vt 0.375000 0.250000
vt 0.625000 0.250000
vt 0.375000 0.500000
vt 0.625000 0.500000
vt 0.375000 0.750000
vt 0.625000 0.750000
vt 0.375000 1.000000
vt 0.625000 1.000000
vt 0.875000 0.000000
vt 0.875000 0.250000
vt 0.125000 0.000000
vt 0.125000 0.250000
vn 0.000000 0.000000 1.000000
vn 0.000000 0.000000 1.000000
vn 0.000000 0.000000 1.000000
vn 0.000000 0.000000 1.000000
vn 0.000000 1.000000 0.000000
vn 0.000000 1.000000 0.000000
vn 0.000000 1.000000 0.000000
vn 0.000000 1.000000 0.000000
vn 0.000000 0.000000 -1.000000
vn 0.000000 0.000000 -1.000000
vn 0.000000 0.000000 -1.000000
vn 0.000000 0.000000 -1.000000
vn 0.000000 -1.000000 0.000000
vn 0.000000 -1.000000 0.000000
vn 0.000000 -1.000000 0.000000
vn 0.000000 -1.000000 0.000000
vn 1.000000 0.000000 0.000000
vn 1.000000 0.000000 0.000000
vn 1.000000 0.000000 0.000000
vn 1.000000 0.000000 0.000000
vn -1.000000 0.000000 0.000000
vn -1.000000 0.000000 0.000000
vn -1.000000 0.000000 0.000000
vn -1.000000 0.000000 0.000000
s off
g pCube4
usemtl initialShadingGroup
f 105/136/217 106/137/218 108/139/219 107/138/220
f 107/138/221 108/139/222 110/141/223 109/140/224
f 109/140/225 110/141/226 112/143/227 111/142/228
f 111/142/229 112/143/230 106/145/231 105/144/232
f 106/137/233 112/146/234 110/147/235 108/139/236
f 111/148/237 105/136/238 107/138/239 109/149/240
