# This file uses centimeters as units for non-parametric coordinates.

mtllib HouseSolo1.mtl
g default
v 1.000000 -2.000000 2.500000
v 2.500000 -2.000000 2.500000
v 1.000000 1.000000 2.500000
v 2.500000 1.000000 2.500000
v 1.000000 1.000000 1.000000
v 2.500000 1.000000 1.000000
v 1.000000 -2.000000 1.000000
v 2.500000 -2.000000 1.000000
vt 0.375000 0.000000
vt 0.625000 0.000000
vt 0.375000 0.250000
vt 0.625000 0.250000
vt 0.375000 0.500000
vt 0.625000 0.500000
vt 0.375000 0.750000
vt 0.625000 0.750000
vt 0.375000 1.000000
vt 0.625000 1.000000
vt 0.875000 0.000000
vt 0.875000 0.250000
vt 0.125000 0.000000
vt 0.125000 0.250000
vn 0.000000 0.000000 1.000000
vn 0.000000 0.000000 1.000000
vn 0.000000 0.000000 1.000000
vn 0.000000 0.000000 1.000000
vn 0.000000 1.000000 0.000000
vn 0.000000 1.000000 0.000000
vn 0.000000 1.000000 0.000000
vn 0.000000 1.000000 0.000000
vn 0.000000 0.000000 -1.000000
vn 0.000000 0.000000 -1.000000
vn 0.000000 0.000000 -1.000000
vn 0.000000 0.000000 -1.000000
vn 0.000000 -1.000000 0.000000
vn 0.000000 -1.000000 0.000000
vn 0.000000 -1.000000 0.000000
vn 0.000000 -1.000000 0.000000
vn 1.000000 0.000000 0.000000
vn 1.000000 0.000000 0.000000
vn 1.000000 0.000000 0.000000
vn 1.000000 0.000000 0.000000
vn -1.000000 0.000000 0.000000
vn -1.000000 0.000000 0.000000
vn -1.000000 0.000000 0.000000
vn -1.000000 0.000000 0.000000
s off
g pCube4
usemtl initialShadingGroup
f 1/1/1 2/2/2 4/4/3 3/3/4
f 3/3/5 4/4/6 6/6/7 5/5/8
f 5/5/9 6/6/10 8/8/11 7/7/12
f 7/7/13 8/8/14 2/10/15 1/9/16
f 2/2/17 8/11/18 6/12/19 4/4/20
f 7/13/21 1/1/22 3/3/23 5/14/24
g default
v -2.875000 -5.000000 0.500000
v -2.625000 -5.000000 0.500000
v -2.875000 -3.000000 0.500000
v -2.625000 -3.000000 0.500000
v -2.875000 -3.000000 -0.500000
v -2.625000 -3.000000 -0.500000
v -2.875000 -5.000000 -0.500000
v -2.625000 -5.000000 -0.500000
vt 0.375000 0.000000
vt 0.625000 0.000000
vt 0.375000 0.250000
vt 0.625000 0.250000
vt 0.375000 0.500000
vt 0.625000 0.500000
vt 0.375000 0.750000
vt 0.625000 0.750000
vt 0.375000 1.000000
vt 0.625000 1.000000
vt 0.875000 0.000000
vt 0.875000 0.250000
vt 0.125000 0.000000
vt 0.125000 0.250000
vn 0.000000 0.000000 1.000000
vn 0.000000 0.000000 1.000000
vn 0.000000 0.000000 1.000000
vn 0.000000 0.000000 1.000000
vn 0.000000 1.000000 0.000000
vn 0.000000 1.000000 0.000000
vn 0.000000 1.000000 0.000000
vn 0.000000 1.000000 0.000000
vn 0.000000 0.000000 -1.000000
vn 0.000000 0.000000 -1.000000
vn 0.000000 0.000000 -1.000000
vn 0.000000 0.000000 -1.000000
vn 0.000000 -1.000000 0.000000
vn 0.000000 -1.000000 0.000000
vn 0.000000 -1.000000 0.000000
vn 0.000000 -1.000000 0.000000
vn 1.000000 0.000000 0.000000
vn 1.000000 0.000000 0.000000
vn 1.000000 0.000000 0.000000
vn 1.000000 0.000000 0.000000
vn -1.000000 0.000000 0.000000
vn -1.000000 0.000000 0.000000
vn -1.000000 0.000000 0.000000
vn -1.000000 0.000000 0.000000
s off
g pCube3
usemtl initialShadingGroup
f 9/15/25 10/16/26 12/18/27 11/17/28
f 11/17/29 12/18/30 14/20/31 13/19/32
f 13/19/33 14/20/34 16/22/35 15/21/36
f 15/21/37 16/22/38 10/24/39 9/23/40
f 10/16/41 16/25/42 14/26/43 12/18/44
f 15/27/45 9/15/46 11/17/47 13/28/48
g default
v -3.000000 -5.000000 4.000000
v 3.000000 -5.000000 4.000000
v -3.000000 -1.500000 4.000000
v 3.000000 -1.500000 4.000000
v -3.000000 -1.500000 -4.000000
v 3.000000 -1.500000 -4.000000
v -3.000000 -5.000000 -4.000000
v 3.000000 -5.000000 -4.000000
v 0.000000 -5.000000 4.000000
v 0.000000 0.000000 4.000000
v 0.000000 0.000000 -4.000000
v 0.000000 -5.000000 -4.000000
v -3.000000 -2.000000 4.000000
v -3.000000 -2.000000 -4.000000
v 0.000000 -0.500000 -4.000000
v 3.000000 -2.000000 -4.000000
v 3.000000 -2.000000 4.000000
v 0.000000 -0.500000 4.000000
v -3.500000 -2.250000 4.000000
v -3.500000 -2.250000 -4.000000
v -3.500000 -1.750000 4.000000
v -3.500000 -1.750000 -4.000000
v 3.500000 -2.250000 -4.000000
v 3.500000 -2.250000 4.000000
v 3.500000 -1.750000 -4.000000
v 3.500000 -1.750000 4.000000
v -3.000000 -1.500000 -4.500000
v 0.000000 0.000000 -4.500000
v 0.000000 -0.500000 -4.500000
v -3.000000 -2.000000 -4.500000
v 3.000000 -2.000000 -4.500000
v 3.000000 -1.500000 -4.500000
v -3.500000 -2.250000 -4.500000
v -3.500000 -1.750000 -4.500000
v 3.500000 -1.750000 -4.500000
v 3.500000 -2.250000 -4.500000
v 0.000000 -0.500000 4.500000
v 0.000000 0.000000 4.500000
v 3.000000 -2.000000 4.500000
v 3.000000 -1.500000 4.500000
v -3.000000 -2.000000 4.500000
v -3.000000 -1.500000 4.500000
v -3.500000 -1.750000 4.500000
v -3.500000 -2.250000 4.500000
v 3.500000 -2.250000 4.500000
v 3.500000 -1.750000 4.500000
v -3.000000 -5.000000 -0.500000
v -3.000000 -5.000000 0.500000
v -3.000000 -3.000000 -0.500000
v -3.000000 -3.000000 0.500000
v -2.500000 -3.000000 0.500000
v -2.500000 -3.000000 -0.500000
v -2.500000 -5.000000 0.500000
v -2.500000 -5.000000 -0.500000
v 0.000000 -5.000000 0.500000
v 3.000000 -5.000000 0.500000
v 0.000000 -5.000000 -0.500000
v 3.000000 -5.000000 -0.500000
vt 0.375000 0.000000
vt 0.625000 0.000000
vt 0.375000 0.250000
vt 0.625000 0.250000
vt 0.375000 0.500000
vt 0.625000 0.500000
vt 0.375000 0.750000
vt 0.625000 0.750000
vt 0.375000 1.000000
vt 0.625000 1.000000
vt 0.875000 0.000000
vt 0.875000 0.250000
vt 0.125000 0.000000
vt 0.125000 0.250000
vt 0.500000 0.000000
vt 0.500000 1.000000
vt 0.500000 0.250000
vt 0.500000 0.500000
vt 0.500000 0.750000
vt 0.375000 0.200000
vt 0.125000 0.200000
vt 0.375000 0.550000
vt 0.500000 0.550000
vt 0.625000 0.550000
vt 0.875000 0.200000
vt 0.625000 0.200000
vt 0.500000 0.200000
vt 0.125000 0.200000
vt 0.375000 0.200000
vt 0.375000 0.250000
vt 0.125000 0.250000
vt 0.625000 0.200000
vt 0.875000 0.200000
vt 0.875000 0.250000
vt 0.625000 0.250000
vt 0.375000 0.500000
vt 0.500000 0.500000
vt 0.500000 0.550000
vt 0.375000 0.550000
vt 0.625000 0.550000
vt 0.625000 0.500000
vt 0.500000 0.200000
vt 0.625000 0.200000
vt 0.625000 0.250000
vt 0.500000 0.250000
vt 0.375000 0.200000
vt 0.375000 0.250000
vt 0.375000 0.250000
vt 0.375000 0.200000
vt 0.125000 0.200000
vt 0.125000 0.200000
vt 0.125000 0.250000
vt 0.125000 0.250000
vt 0.875000 0.250000
vt 0.875000 0.250000
vt 0.875000 0.200000
vt 0.875000 0.200000
vt 0.625000 0.200000
vt 0.625000 0.250000
vt 0.301850 0.426850
vt 0.326275 0.451275
vt 0.226650 0.139193
vt 0.279122 0.142274
vt 0.279122 0.142274
vt 0.226650 0.139193
vt 0.395283 0.891637
vt 0.399530 0.850870
vt 0.500000 0.900000
vt 0.625000 0.900000
vt 0.725000 0.000000
vt 0.500000 0.855000
vt 0.625000 0.855000
vt 0.770000 0.000000
vn 0.000000 0.000000 1.000000
vn 0.000000 0.000000 1.000000
vn 0.000000 0.000000 1.000000
vn 0.000000 0.000000 1.000000
vn -0.447214 0.894427 0.000000
vn 0.000000 1.000000 0.000000
vn 0.000000 1.000000 0.000000
vn -0.447214 0.894427 0.000000
vn 0.000000 0.000000 -1.000000
vn 0.000000 0.000000 -1.000000
vn 0.000000 0.000000 -1.000000
vn 0.000000 0.000000 -1.000000
vn 0.000000 -1.000000 0.000000
vn 0.000000 -1.000000 0.000000
vn 0.000000 -1.000000 0.000000
vn 0.000000 -1.000000 0.000000
vn 0.000000 -1.000000 0.000000
vn 1.000000 0.000000 0.000000
vn 1.000000 0.000000 0.000000
vn 1.000000 0.000000 0.000000
vn 1.000000 0.000000 0.000000
vn 1.000000 0.000000 0.000000
vn 1.000000 0.000000 0.000000
vn -1.000000 0.000000 -0.000000
vn -1.000000 0.000000 -0.000000
vn -1.000000 0.000000 -0.000000
vn -1.000000 0.000000 -0.000000
vn -1.000000 0.000000 -0.000000
vn -1.000000 0.000000 -0.000000
vn -1.000000 0.000000 -0.000000
vn -1.000000 0.000000 -0.000000
vn -0.000000 0.000000 1.000000
vn -0.000000 0.000000 1.000000
vn 0.447214 0.894427 0.000000
vn 0.447214 0.894427 0.000000
vn -0.000000 0.000000 -1.000000
vn -0.000000 0.000000 -1.000000
vn 0.000000 -1.000000 0.000000
vn 0.000000 -1.000000 0.000000
vn -1.000000 0.000000 0.000000
vn -1.000000 0.000000 0.000000
vn -1.000000 0.000000 0.000000
vn -1.000000 0.000000 0.000000
vn -0.000000 0.000000 -1.000000
vn -0.000000 0.000000 -1.000000
vn -0.000000 0.000000 -1.000000
vn -0.000000 0.000000 -1.000000
vn -0.000000 0.000000 -1.000000
vn -0.000000 0.000000 -1.000000
vn 1.000000 0.000000 0.000000
vn 1.000000 0.000000 0.000000
vn 1.000000 0.000000 0.000000
vn 1.000000 0.000000 0.000000
vn 0.000000 0.000000 1.000000
vn 0.000000 0.000000 1.000000
vn 0.000000 0.000000 1.000000
vn 0.000000 0.000000 1.000000
vn 0.000000 0.000000 1.000000
vn 0.000000 0.000000 1.000000
vn 0.447214 -0.894427 0.000000
vn 0.447214 -0.894427 0.000000
vn 0.447214 -0.894427 0.000000
vn 0.447214 -0.894427 0.000000
vn 0.000000 0.000000 1.000000
vn 0.000000 0.000000 1.000000
vn -0.447214 0.894427 0.000000
vn -0.447214 0.894427 0.000000
vn -0.000001 0.000000 -1.000000
vn -0.000001 0.000000 -1.000000
vn -0.447214 -0.894427 0.000000
vn -0.447214 -0.894427 0.000000
vn -0.447214 -0.894427 0.000000
vn -0.447214 -0.894427 0.000000
vn 0.000000 0.000000 -1.000000
vn 0.000000 0.000000 -1.000000
vn 0.447214 0.894427 0.000000
vn 0.447214 0.894427 0.000000
vn 0.000001 0.000000 1.000000
vn 0.000001 0.000000 1.000000
vn -0.447214 0.894427 0.000000
vn -0.447214 0.894427 0.000000
vn 0.447214 -0.894427 0.000000
vn 0.447214 -0.894427 0.000000
vn 0.447214 -0.894427 0.000000
vn -0.447214 -0.894427 0.000000
vn -0.447214 -0.894427 0.000000
vn -0.447214 -0.894427 0.000000
vn 0.447214 0.894427 0.000000
vn 0.447214 0.894427 0.000000
vn 0.447213 -0.894427 0.000000
vn -1.000000 0.000000 0.000000
vn -1.000000 0.000000 0.000000
vn -0.447213 0.894427 0.000000
vn 0.447213 0.894427 0.000000
vn 1.000000 0.000000 0.000000
vn 1.000000 0.000000 0.000000
vn -0.447213 -0.894427 0.000000
vn -0.447214 -0.894427 0.000000
vn -0.447214 -0.894427 0.000000
vn -0.447214 -0.894427 0.000000
vn 0.447214 0.894427 0.000000
vn 0.447214 0.894427 0.000000
vn 0.447214 -0.894427 0.000000
vn 0.447214 -0.894427 0.000000
vn 0.447214 -0.894427 0.000000
vn -0.447214 0.894427 0.000000
vn -0.447214 0.894427 0.000000
vn -0.447213 0.894427 0.000000
vn -1.000000 0.000000 0.000000
vn -1.000000 0.000000 0.000000
vn 0.447213 -0.894427 0.000000
vn -0.447213 -0.894427 0.000000
vn 1.000000 0.000000 0.000000
vn 1.000000 0.000000 0.000000
vn 0.447213 0.894427 0.000000
vn 0.000000 -1.000000 0.000000
vn 0.000000 -1.000000 0.000000
vn 0.000000 -1.000000 0.000000
vn 0.000000 -1.000000 0.000000
vn -1.000000 0.000000 0.000000
vn -1.000000 0.000000 0.000000
vn -1.000000 0.000000 0.000000
vn -1.000000 0.000000 0.000000
vn 0.000000 0.000000 1.000000
vn 0.000000 0.000000 1.000000
vn 0.000000 0.000000 1.000000
vn 0.000000 0.000000 1.000000
vn 0.000000 0.000000 -1.000000
vn 0.000000 0.000000 -1.000000
vn 0.000000 0.000000 -1.000000
vn 0.000000 0.000000 -1.000000
vn 0.000000 -1.000000 0.000000
vn 0.000000 -1.000000 0.000000
vn 0.000000 -1.000000 0.000000
vn 0.000000 -1.000000 0.000000
vn 0.000000 -1.000000 0.000000
vn 0.000000 -1.000000 0.000000
vn 0.000000 -1.000000 0.000000
s 1
g pCube2
usemtl initialShadingGroup
f 17/29/49 25/43/50 34/55/51 29/48/52
s 2
f 19/31/53 26/45/54 27/46/55 21/33/56
s 3
f 30/50/57 31/51/58 28/47/59 23/35/60
s 4
f 69/94/61 71/96/62 25/44/63 17/37/64 64/89/65
s off
f 18/30/66 72/98/67 74/101/68 24/39/69 32/53/70 33/54/71
f 23/41/72 63/88/73 65/90/74 66/91/75 64/89/76 17/29/77 29/48/78 30/49/79
s 1
f 33/54/80 34/55/51 25/43/50 18/30/81
s 2
f 27/46/55 26/45/54 20/32/82 22/34/83
s 3
f 28/47/59 31/51/58 32/52/84 24/36/85
s 4
f 25/44/63 71/96/62 72/97/86 18/38/87
s 5
f 36/56/88 35/57/89 37/58/90 38/59/91
s 6
f 43/64/92 44/65/93 45/66/94 46/67/95
f 47/68/96 45/66/94 44/65/93 48/69/97
s 7
f 40/60/98 39/61/99 41/62/100 42/63/101
s 8
f 54/73/102 53/70/103 55/71/104 56/72/105
f 57/74/106 53/70/103 54/73/102 58/75/107
s 9
f 30/49/108 29/48/109 35/57/110 36/56/111
s 8
f 57/74/106 58/75/107 59/76/112 60/77/113
s 2
f 19/31/53 21/42/56 38/59/114 37/58/115
s 6
f 43/81/92 46/78/95 49/79/116 50/80/117
s 10
f 33/54/118 32/53/119 39/61/120 40/60/121
s 6
f 47/85/96 48/82/97 51/83/122 52/84/123
s 2
f 22/40/83 20/32/82 42/63/124 41/62/125
s 8
f 56/72/105 55/71/104 61/86/126 62/87/127
s 2
f 21/33/56 27/46/55 44/65/128 43/64/129
s 9
f 31/51/130 30/50/108 46/67/131 45/66/132
s 10
f 32/52/119 31/51/133 45/66/134 47/68/135
s 2
f 27/46/55 22/34/83 48/69/136 44/65/137
s 9
f 30/55/108 36/54/111 49/71/138 46/70/131
s 5
f 36/32/88 38/45/91 50/73/139 49/72/140
s 2
f 38/48/114 21/55/56 43/70/129 50/74/141
f 22/45/83 41/31/125 51/75/142 48/73/136
s 7
f 41/31/100 39/58/99 52/76/143 51/75/144
s 10
f 39/58/120 32/57/119 47/77/135 52/76/145
f 34/57/146 33/48/118 55/74/147 53/77/148
s 2
f 20/49/82 26/56/54 54/79/149 56/78/150
s 9
f 29/56/109 34/59/151 53/80/152 57/79/153
s 2
f 26/59/54 19/42/53 58/81/154 54/80/155
f 19/40/53 37/62/115 59/83/156 58/82/154
s 5
f 37/62/90 35/61/89 60/84/157 59/83/158
s 9
f 35/61/110 29/53/109 57/85/153 60/84/159
s 10
f 33/54/118 40/60/121 61/86/160 55/71/147
s 7
f 40/60/98 42/63/101 62/87/161 61/86/162
s 2
f 42/63/124 20/32/82 56/72/150 62/87/163
s off
f 66/91/164 65/90/165 68/93/166 67/92/167
f 67/92/168 68/93/169 70/95/170 69/94/171
f 68/93/172 65/90/173 63/88/174 70/95/175
f 66/91/176 67/92/177 69/94/178 64/89/179
s 4
f 70/95/180 73/99/181 71/96/62 69/94/61
f 72/97/86 71/96/62 73/99/181 74/100/182
f 23/35/183 28/47/184 73/99/181 70/95/180 63/88/185
f 74/100/182 73/99/181 28/47/184 24/36/186
