# This file uses centimeters as units for non-parametric coordinates.

mtllib HouseBackBothSides1.mtl
g default
v 5.000000 -1.500000 -3.000000
v 5.000000 -1.500000 3.000000
v 5.000000 -5.000000 -3.000000
v 5.000000 -5.000000 3.000000
v 5.000000 0.000000 -0.000000
v 5.000000 -5.000000 -0.000000
v 5.000000 -2.000000 -3.000000
v 5.000000 -0.500000 -0.000000
v 5.000000 -2.000000 3.000000
v 5.000000 -2.250000 -3.500000
v 5.000000 -1.750000 -3.500000
v 5.000000 -2.250000 3.500000
v 5.000000 -1.750000 3.500000
v -3.000000 -5.000000 5.000000
v 3.000000 -5.000000 5.000000
v -3.000000 -1.500000 5.000000
v 3.000000 -1.500000 5.000000
v -2.999999 -1.500000 -5.000000
v 3.000000 -1.500000 -5.000000
v -3.000000 -5.000000 -5.000000
v 3.000000 -5.000000 -5.000000
v 0.000000 -5.000000 5.000000
v 0.000000 0.000000 5.000000
v 0.000000 0.000000 -5.000000
v 0.000000 -5.000000 -5.000000
v -3.000000 -2.000000 5.000000
v -3.000000 -2.000000 -5.000000
v 0.000000 -0.500000 -5.000000
v 3.000000 -2.000000 -5.000000
v 3.000000 -2.000000 5.000000
v 0.000000 -0.500000 5.000000
v -3.500000 -2.250000 5.000000
v -3.500000 -2.250000 -5.000000
v -3.500000 -1.750000 5.000000
v -3.500000 -1.750000 -5.000000
v 3.500000 -2.250000 -5.000000
v 3.500000 -2.250000 5.000000
v 3.500000 -1.750000 -5.000000
v 3.500000 -1.750000 5.000000
v 0.000000 0.000000 0.000000
v 3.000000 -1.500000 -3.000000
v 3.500000 -1.750000 -3.500000
v 3.500000 -2.250000 -3.500000
v 3.000000 -1.500000 3.000000
v 3.500000 -1.750000 3.500000
v 3.500000 -2.250000 3.500000
v 3.000000 -2.000000 3.500000
v 3.000000 -2.000000 -3.500000
v 3.000000 -5.000000 3.500000
v 3.000000 -5.000000 -3.500000
v 3.000000 -2.000000 -3.000000
v 3.000000 -5.000000 -3.000000
v 3.000000 -2.000000 3.000000
v 3.000000 -5.000000 3.000000
v 0.000000 -5.000000 0.000000
v 3.000000 -5.000000 0.000000
vt 0.375000 0.500000
vt 0.625000 0.500000
vt 0.375000 0.750000
vt 0.625000 0.750000
vt 0.875000 0.000000
vt 0.875000 0.250000
vt 0.125000 0.000000
vt 0.125000 0.250000
vt 0.500000 0.500000
vt 0.500000 0.750000
vt 0.125000 0.200000
vt 0.375000 0.550000
vt 0.500000 0.550000
vt 0.625000 0.550000
vt 0.875000 0.200000
vt 0.125000 0.200000
vt 0.125000 0.250000
vt 0.875000 0.200000
vt 0.875000 0.250000
vt 0.375000 0.000000
vt 0.500000 0.000000
vt 0.500000 0.200000
vt 0.375000 0.200000
vt 0.375000 0.250000
vt 0.500000 0.250000
vt 0.500000 0.375000
vt 0.500000 0.500000
vt 0.250000 0.375000
vt 0.250000 0.375000
vt 0.500000 0.550000
vt 0.500000 0.750000
vt 0.375000 0.750000
vt 0.500000 0.875000
vt 0.500000 1.000000
vt 0.375000 1.000000
vt 0.852177 0.200000
vt 0.841951 0.000000
vt 0.875000 0.000000
vt 0.750000 0.375000
vt 0.125000 0.000000
vt 0.625000 0.200000
vt 0.625000 0.000000
vt 0.735251 0.360251
vt 0.750000 0.375000
vt 0.625000 0.750000
vt 0.645389 0.479611
vt 0.625000 0.880911
vt 0.125000 0.200000
vt 0.375000 0.200000
vt 0.375000 0.250000
vt 0.125000 0.250000
vt 0.861418 0.250000
vt 0.861761 0.200000
vt 0.875000 0.200000
vt 0.875000 0.250000
vt 0.625000 0.200000
vt 0.625000 0.250000
vt 0.638408 0.263408
vt 0.635300 0.250000
vt 0.636892 0.200000
vt 0.641941 0.200000
vt 0.653931 0.200000
vt 0.639830 0.000000
vt 0.837673 0.200000
vt 0.723700 0.401300
vt 0.625000 0.985170
vt 0.625000 1.000000
vt 0.625000 0.783049
vt 0.625000 0.250000
vn 0.000000 0.894427 -0.447214
vn 0.000000 0.894427 -0.447214
vn 0.000000 0.894427 -0.447214
vn 0.000000 0.894427 -0.447214
vn 1.000000 0.000000 0.000000
vn 1.000000 0.000000 0.000000
vn 1.000000 0.000000 0.000000
vn 1.000000 0.000000 0.000000
vn 0.000000 0.000000 -1.000000
vn 0.000000 0.000000 -1.000000
vn 0.000000 0.000000 -1.000000
vn 0.000000 0.000000 -1.000000
vn 0.000000 0.894427 0.447214
vn 0.000000 0.894427 0.447214
vn 0.000000 0.894427 0.447214
vn 0.000000 0.894427 0.447214
vn 1.000000 0.000000 0.000000
vn 1.000000 0.000000 0.000000
vn -0.000000 0.000000 -1.000000
vn -0.000000 0.000000 -1.000000
vn -0.000000 0.000000 -1.000000
vn -0.000000 0.000000 -1.000000
vn 0.000000 -0.894427 0.447214
vn 0.000000 -0.894427 0.447214
vn 0.000000 -0.894427 0.447214
vn 0.000000 -0.894427 0.447214
vn 0.000000 0.894427 0.447214
vn 0.000000 0.894427 0.447214
vn 0.000000 0.894427 0.447214
vn 0.000000 0.894427 0.447214
vn 1.000000 0.000000 0.000000
vn 1.000000 0.000000 0.000000
vn 1.000000 0.000000 0.000000
vn 1.000000 0.000000 0.000000
vn 1.000000 0.000000 0.000000
vn 1.000000 0.000000 0.000000
vn 1.000000 0.000000 0.000000
vn 1.000000 0.000000 0.000000
vn 1.000000 0.000000 0.000000
vn 1.000000 0.000000 0.000000
vn 1.000000 0.000000 0.000000
vn 1.000000 0.000000 0.000000
vn 1.000000 0.000000 0.000000
vn 1.000000 0.000000 0.000000
vn 1.000000 0.000000 0.000000
vn 1.000000 0.000000 0.000000
vn 0.000000 0.000000 1.000000
vn 0.000000 0.000000 1.000000
vn 0.000000 0.000000 1.000000
vn 0.000000 0.000000 1.000000
vn -0.447214 0.894427 -0.000000
vn -0.234054 0.972224 -0.000000
vn -0.323745 0.946144 -0.000000
vn -0.234054 0.972224 -0.000000
vn -0.447214 0.894427 -0.000000
vn 0.000000 0.000000 -1.000000
vn 0.000000 0.000000 -1.000000
vn 0.000000 0.000000 -1.000000
vn 0.000000 0.000000 -1.000000
vn 0.000000 -1.000000 0.000000
vn 0.000000 -1.000000 0.000000
vn 0.000000 -1.000000 0.000000
vn 0.000000 -1.000000 0.000000
vn 0.000000 -1.000000 0.000000
vn 1.000000 0.000000 0.000000
vn 1.000000 0.000000 0.000000
vn 1.000000 0.000000 0.000000
vn 1.000000 0.000000 0.000000
vn -1.000000 0.000000 0.000000
vn -1.000000 0.000000 0.000000
vn -1.000000 0.000000 0.000000
vn -1.000000 0.000000 0.000000
vn 0.000000 0.000000 1.000000
vn 0.000000 0.000000 1.000000
vn 0.447214 0.894427 0.000000
vn 0.447214 0.894427 0.000000
vn 0.000000 0.000000 -1.000000
vn 0.000000 0.000000 -1.000000
vn 0.000000 -1.000000 0.000000
vn 0.000000 -1.000000 0.000000
vn -1.000000 0.000000 0.000000
vn -1.000000 0.000000 0.000000
vn -1.000000 0.000000 0.000000
vn -1.000000 0.000000 0.000000
vn 1.000000 0.000000 0.000000
vn 1.000000 0.000000 0.000000
vn 1.000000 0.000000 0.000000
vn 1.000000 0.000000 0.000000
vn 0.447213 -0.894427 0.000000
vn 0.447213 -0.894427 0.000000
vn 0.447213 -0.894427 0.000000
vn 0.447213 -0.894427 0.000000
vn -0.447213 0.894427 -0.000000
vn -0.447213 0.894427 -0.000000
vn -0.447213 -0.894427 0.000000
vn -0.447213 -0.894427 0.000000
vn -0.447213 -0.894427 0.000000
vn -0.447213 -0.894427 0.000000
vn 0.447214 0.894427 0.000000
vn 0.447214 0.894427 0.000000
vn 0.447214 0.894427 0.000000
vn 0.447214 0.894427 0.000000
vn 0.447214 0.894427 0.000000
vn 0.447214 0.894427 0.000000
vn 1.000000 0.000000 0.000000
vn 1.000000 0.000000 0.000000
vn 1.000000 0.000000 0.000000
vn 1.000000 0.000000 0.000000
vn -0.447213 -0.894427 0.000000
vn -0.447213 -0.894427 0.000000
vn -0.447213 -0.894427 0.000000
vn -0.447213 -0.894427 0.000000
vn -0.447214 -0.894427 0.000000
vn 1.000000 0.000000 0.000000
vn 1.000000 0.000000 0.000000
vn 1.000000 0.000000 0.000000
vn 1.000000 0.000000 0.000000
vn 1.000000 0.000000 0.000000
vn 1.000000 0.000000 0.000000
vn 1.000000 0.000000 0.000000
vn 1.000000 0.000000 0.000000
vn 0.000000 -1.000000 0.000000
vn 0.000000 -1.000000 0.000000
vn 0.000000 -1.000000 0.000000
vn 0.000000 -1.000000 0.000000
vn 0.000000 -1.000000 0.000000
vn -0.447214 -0.894427 0.000000
vn -0.000000 0.000000 1.000000
vn -0.000000 0.000000 1.000000
vn -0.000000 0.000000 1.000000
vn -0.000000 0.000000 1.000000
vn 0.000000 0.894427 -0.447214
vn 0.000000 0.894427 -0.447214
vn 0.000000 0.894427 -0.447214
vn 0.000000 0.894427 -0.447214
vn 0.000000 -1.000000 0.000000
vn 0.000000 -1.000000 0.000000
vn 0.000000 -1.000000 0.000000
vn 0.000000 -1.000000 0.000000
vn 0.000000 -1.000000 0.000000
vn 0.000000 -1.000000 0.000000
vn 0.000000 -1.000000 0.000000
vn 0.000000 -1.000000 0.000000
vn 0.000000 0.000000 1.000000
vn 0.000000 0.000000 1.000000
vn 0.000000 0.000000 1.000000
vn 0.000000 0.000000 1.000000
vn 0.000000 -0.894427 -0.447214
vn 0.000000 -0.894427 -0.447214
vn 0.000000 -0.894427 -0.447214
vn 0.000000 -0.894427 -0.447214
vn 0.000000 0.000000 1.000000
vn 0.000000 0.000000 1.000000
vn 0.000000 0.000000 1.000000
vn 0.000000 0.000000 1.000000
vn 0.000000 0.000000 1.000000
vn 0.000000 0.000000 1.000000
vn 0.000000 0.000000 1.000000
vn 0.000000 0.000000 1.000000
vn 0.000000 0.000000 1.000000
vn 0.000000 0.000000 1.000000
vn 0.000000 0.000000 1.000000
vn 0.000000 0.000000 1.000000
vn 0.000000 0.000000 1.000000
vn 0.000000 0.000000 1.000000
vn 0.000000 0.000000 1.000000
vn 0.000000 0.000000 1.000000
vn 0.000000 0.000000 -1.000000
vn 0.000000 0.000000 -1.000000
vn 0.000000 0.000000 -1.000000
vn 0.000000 0.000000 -1.000000
vn 0.000000 0.000000 -1.000000
vn 0.000000 0.000000 -1.000000
vn 0.000000 0.000000 -1.000000
vn 0.000000 0.000000 -1.000000
vn 0.000000 0.000000 -1.000000
vn 0.000000 0.000000 -1.000000
vn 0.000000 0.000000 -1.000000
vn 0.000000 0.000000 -1.000000
vn 0.000000 0.000000 -1.000000
vn 0.000000 0.000000 -1.000000
vn 0.000000 0.000000 -1.000000
vn 0.000000 0.000000 -1.000000
s off
g pasted__pCube2
usemtl initialShadingGroup
f 5/9/1 1/1/2 41/43/3 40/26/4
s 1
f 7/12/5 8/13/6 6/10/7 3/3/8
s off
f 7/11/9 3/7/10 52/65/11 51/64/12
f 2/2/13 5/9/14 40/26/15 44/58/16
s 1
f 6/10/7 8/13/6 9/14/17 4/4/18
s off
f 11/17/19 10/16/20 43/53/21 42/52/22
f 10/16/23 7/11/24 51/64/25 43/53/26
f 13/19/27 2/6/28 44/58/29 45/59/30
f 5/9/31 2/2/32 9/14/33 8/13/34
f 12/18/35 9/14/36 2/6/37 13/19/38
f 1/1/39 5/9/40 8/13/41 7/12/42
f 10/16/43 11/17/44 1/1/45 7/11/46
s 2
f 14/20/47 22/21/48 31/22/49 26/23/50
s 3
f 16/24/51 23/25/52 40/26/53 24/27/54 18/28/55
s 4
f 27/29/56 28/30/57 25/31/58 20/32/59
s 5
f 20/32/60 25/31/61 55/33/62 22/34/63 14/35/64
s 6
f 48/36/65 50/37/66 21/38/67 29/39/68
s off
f 20/40/69 14/20/70 26/23/71 27/29/72
s 2
f 30/41/73 31/22/49 22/21/48 15/42/74
s 3
f 24/27/54 40/26/53 41/43/75 19/44/76
s 4
f 25/31/58 28/30/57 29/39/77 21/45/78
s 5
f 54/46/79 55/33/62 56/47/80
s off
f 33/48/81 32/49/82 34/50/83 35/51/84
f 42/52/85 43/53/86 36/54/87 38/55/88
f 27/29/89 26/23/90 32/49/91 33/48/92
s 3
f 16/24/51 18/28/55 35/51/93 34/50/94
s 7
f 43/53/95 48/36/96 29/39/97 36/54/98
s 3
f 19/44/76 41/43/75 42/52/99 38/55/100
f 44/58/101 40/26/53 23/25/52 17/69/102
f 45/59/103 44/58/101 17/69/102 39/57/104
s off
f 37/56/105 46/60/106 45/59/107 39/57/108
s 8
f 30/41/109 47/61/110 46/60/111 37/56/112
f 46/60/111 47/61/110 53/62/113
s 9
f 15/42/114 49/63/115 47/61/116 30/41/117
s 6
f 51/64/118 52/65/119 50/37/66 48/36/65
s 9
f 47/61/116 49/63/115 54/46/120 53/62/121
s 5
f 22/34/63 55/33/62 54/46/79 49/66/122 15/67/123
f 52/65/124 55/33/62 25/31/61 21/45/125 50/68/126
f 56/47/80 55/33/62 52/65/124
s 7
f 43/53/95 51/64/127 48/36/96
s off
f 13/19/128 45/59/129 46/60/130 12/18/131
f 11/17/132 42/52/133 41/43/134 1/8/135
f 6/10/136 56/47/137 52/65/138 3/3/139
f 4/4/140 54/46/141 56/47/142 6/10/143
f 9/15/144 53/62/145 54/46/146 4/5/147
f 12/18/148 46/60/149 53/62/150 9/15/151
f 32/49/152 26/23/153 16/24/154 34/50/155
f 30/41/156 37/56/157 39/57/158 17/69/159
f 17/69/160 23/25/161 31/22/162 30/41/163
f 23/25/164 16/24/165 26/23/166 31/22/167
f 36/54/168 29/39/169 19/44/170 38/55/171
f 24/27/172 19/44/173 29/39/174 28/30/175
f 18/28/176 24/27/177 28/30/178 27/29/179
f 27/29/180 33/48/181 35/51/182 18/28/183
g default
v 0.750000 -2.000000 2.250000
v 2.250000 -2.000000 2.250000
v 0.750000 1.000000 2.250000
v 2.250000 1.000000 2.250000
v 0.750000 1.000000 0.750000
v 2.250000 1.000000 0.750000
v 0.750000 -2.000000 0.750000
v 2.250000 -2.000000 0.750000
vt 0.375000 0.000000
vt 0.625000 0.000000
vt 0.375000 0.250000
vt 0.625000 0.250000
vt 0.375000 0.500000
vt 0.625000 0.500000
vt 0.375000 0.750000
vt 0.625000 0.750000
vt 0.375000 1.000000
vt 0.625000 1.000000
vt 0.875000 0.000000
vt 0.875000 0.250000
vt 0.125000 0.000000
vt 0.125000 0.250000
vn 0.000000 0.000000 1.000000
vn 0.000000 0.000000 1.000000
vn 0.000000 0.000000 1.000000
vn 0.000000 0.000000 1.000000
vn 0.000000 1.000000 0.000000
vn 0.000000 1.000000 0.000000
vn 0.000000 1.000000 0.000000
vn 0.000000 1.000000 0.000000
vn 0.000000 0.000000 -1.000000
vn 0.000000 0.000000 -1.000000
vn 0.000000 0.000000 -1.000000
vn 0.000000 0.000000 -1.000000
vn 0.000000 -1.000000 0.000000
vn 0.000000 -1.000000 0.000000
vn 0.000000 -1.000000 0.000000
vn 0.000000 -1.000000 0.000000
vn 1.000000 0.000000 0.000000
vn 1.000000 0.000000 0.000000
vn 1.000000 0.000000 0.000000
vn 1.000000 0.000000 0.000000
vn -1.000000 0.000000 0.000000
vn -1.000000 0.000000 0.000000
vn -1.000000 0.000000 0.000000
vn -1.000000 0.000000 0.000000
s off
g pCube4
usemtl initialShadingGroup
f 57/70/184 58/71/185 60/73/186 59/72/187
f 59/72/188 60/73/189 62/75/190 61/74/191
f 61/74/192 62/75/193 64/77/194 63/76/195
f 63/76/196 64/77/197 58/79/198 57/78/199
f 58/71/200 64/80/201 62/81/202 60/73/203
f 63/82/204 57/70/205 59/72/206 61/83/207
g default
v -3.125000 -5.000000 0.500000
v -2.875000 -5.000000 0.500000
v -3.125000 -3.000000 0.500000
v -2.875000 -3.000000 0.500000
v -3.125000 -3.000000 -0.500000
v -2.875000 -3.000000 -0.500000
v -3.125000 -5.000000 -0.500000
v -2.875000 -5.000000 -0.500000
vt 0.375000 0.000000
vt 0.625000 0.000000
vt 0.375000 0.250000
vt 0.625000 0.250000
vt 0.375000 0.500000
vt 0.625000 0.500000
vt 0.375000 0.750000
vt 0.625000 0.750000
vt 0.375000 1.000000
vt 0.625000 1.000000
vt 0.875000 0.000000
vt 0.875000 0.250000
vt 0.125000 0.000000
vt 0.125000 0.250000
vn 0.000000 0.000000 1.000000
vn 0.000000 0.000000 1.000000
vn 0.000000 0.000000 1.000000
vn 0.000000 0.000000 1.000000
vn 0.000000 1.000000 0.000000
vn 0.000000 1.000000 0.000000
vn 0.000000 1.000000 0.000000
vn 0.000000 1.000000 0.000000
vn 0.000000 0.000000 -1.000000
vn 0.000000 0.000000 -1.000000
vn 0.000000 0.000000 -1.000000
vn 0.000000 0.000000 -1.000000
vn 0.000000 -1.000000 0.000000
vn 0.000000 -1.000000 0.000000
vn 0.000000 -1.000000 0.000000
vn 0.000000 -1.000000 0.000000
vn 1.000000 0.000000 0.000000
vn 1.000000 0.000000 0.000000
vn 1.000000 0.000000 0.000000
vn 1.000000 0.000000 0.000000
vn -1.000000 0.000000 0.000000
vn -1.000000 0.000000 0.000000
vn -1.000000 0.000000 0.000000
vn -1.000000 0.000000 0.000000
s off
g pCube3
usemtl initialShadingGroup
f 65/84/208 66/85/209 68/87/210 67/86/211
f 67/86/212 68/87/213 70/89/214 69/88/215
f 69/88/216 70/89/217 72/91/218 71/90/219
f 71/90/220 72/91/221 66/93/222 65/92/223
f 66/85/224 72/94/225 70/95/226 68/87/227
f 71/96/228 65/84/229 67/86/230 69/97/231
